<svg width="509" height="235" xmlns="http://www.w3.org/2000/svg" xmlns:xlink="http://www.w3.org/1999/xlink" overflow="hidden"><defs><clipPath id="clip0"><path d="M121 313 630 313 630 548 121 548Z" fill-rule="evenodd" clip-rule="evenodd"/></clipPath></defs><g clip-path="url(#clip0)" transform="translate(-121 -313)"><path d="M0.5-2.77778e-07 0.500101 182.31-0.499899 182.31-0.5 2.77778e-07ZM4.0001 180.976 0.000104987 188.976-3.9999 180.976Z" transform="matrix(1 0 0 -1 130.5 511.476)"/><path d="M130.5 511 312.81 511 312.81 512 130.5 512ZM311.476 507.5 319.476 511.5 311.476 515.5Z"/><text font-family="DengXian,DengXian_MSFontService,sans-serif" font-weight="400" font-size="15" transform="translate(213.085 535)">图<tspan x="14.6667" y="0">1</tspan></text><path d="M154 370.5C154 369.119 154.895 368 156 368 157.105 368 158 369.119 158 370.5 158 371.881 157.105 373 156 373 154.895 373 154 371.881 154 370.5Z" fill="#FF0000" fill-rule="evenodd" fill-opacity="0.980392"/><path d="M158 392.5C158 391.119 159.119 390 160.5 390 161.881 390 163 391.119 163 392.5 163 393.881 161.881 395 160.5 395 159.119 395 158 393.881 158 392.5Z" fill="#FF0000" fill-rule="evenodd" fill-opacity="0.980392"/><path d="M235 470.5C235 469.119 235.895 468 237 468 238.105 468 239 469.119 239 470.5 239 471.881 238.105 473 237 473 235.895 473 235 471.881 235 470.5Z" fill="#FF0000" fill-rule="evenodd" fill-opacity="0.980392"/><path d="M202 418.5C202 417.119 202.895 416 204 416 205.105 416 206 417.119 206 418.5 206 419.881 205.105 421 204 421 202.895 421 202 419.881 202 418.5Z" fill="#FF0000" fill-rule="evenodd" fill-opacity="0.980392"/><path d="M173 398.5C173 397.119 174.119 396 175.5 396 176.881 396 178 397.119 178 398.5 178 399.881 176.881 401 175.5 401 174.119 401 173 399.881 173 398.5Z" fill="#FF0000" fill-rule="evenodd" fill-opacity="0.980392"/><path d="M234 450.5C234 449.119 234.895 448 236 448 237.105 448 238 449.119 238 450.5 238 451.881 237.105 453 236 453 234.895 453 234 451.881 234 450.5Z" fill="#FF0000" fill-rule="evenodd" fill-opacity="0.980392"/><path d="M167 385C167 383.895 168.119 383 169.5 383 170.881 383 172 383.895 172 385 172 386.105 170.881 387 169.5 387 168.119 387 167 386.105 167 385Z" fill="#FF0000" fill-rule="evenodd" fill-opacity="0.980392"/><path d="M187 404C187 402.895 187.895 402 189 402 190.105 402 191 402.895 191 404 191 405.105 190.105 406 189 406 187.895 406 187 405.105 187 404Z" fill="#FF0000" fill-rule="evenodd" fill-opacity="0.980392"/><path d="M185 418.5C185 417.119 186.119 416 187.5 416 188.881 416 190 417.119 190 418.5 190 419.881 188.881 421 187.5 421 186.119 421 185 419.881 185 418.5Z" fill="#FF0000" fill-rule="evenodd" fill-opacity="0.980392"/><path d="M201 434.5C201 433.119 202.119 432 203.5 432 204.881 432 206 433.119 206 434.5 206 435.881 204.881 437 203.5 437 202.119 437 201 435.881 201 434.5Z" fill="#FF0000" fill-rule="evenodd" fill-opacity="0.980392"/><path d="M217 450.5C217 449.119 218.119 448 219.5 448 220.881 448 222 449.119 222 450.5 222 451.881 220.881 453 219.5 453 218.119 453 217 451.881 217 450.5Z" fill="#FF0000" fill-rule="evenodd" fill-opacity="0.980392"/><path d="M170 373C170 371.895 170.895 371 172 371 173.105 371 174 371.895 174 373 174 374.105 173.105 375 172 375 170.895 375 170 374.105 170 373Z" fill="#FF0000" fill-rule="evenodd" fill-opacity="0.980392"/><path d="M170 408.5C170 407.119 170.895 406 172 406 173.105 406 174 407.119 174 408.5 174 409.881 173.105 411 172 411 170.895 411 170 409.881 170 408.5Z" fill="#FF0000" fill-rule="evenodd" fill-opacity="0.980392"/><path d="M214 400.5C214 399.119 215.119 398 216.5 398 217.881 398 219 399.119 219 400.5 219 401.881 217.881 403 216.5 403 215.119 403 214 401.881 214 400.5Z" fill="#FF0000" fill-rule="evenodd" fill-opacity="0.980392"/><path d="M230 416.5C230 415.119 231.119 414 232.5 414 233.881 414 235 415.119 235 416.5 235 417.881 233.881 419 232.5 419 231.119 419 230 417.881 230 416.5Z" fill="#FF0000" fill-rule="evenodd" fill-opacity="0.980392"/><path d="M246 432.5C246 431.119 247.119 430 248.5 430 249.881 430 251 431.119 251 432.5 251 433.881 249.881 435 248.5 435 247.119 435 246 433.881 246 432.5Z" fill="#FF0000" fill-rule="evenodd" fill-opacity="0.980392"/><path d="M184 384.5C184 383.119 185.119 382 186.5 382 187.881 382 189 383.119 189 384.5 189 385.881 187.881 387 186.5 387 185.119 387 184 385.881 184 384.5Z" fill="#FF0000" fill-rule="evenodd" fill-opacity="0.980392"/><path d="M200 400.5C200 399.119 201.119 398 202.5 398 203.881 398 205 399.119 205 400.5 205 401.881 203.881 403 202.5 403 201.119 403 200 401.881 200 400.5Z" fill="#FF0000" fill-rule="evenodd" fill-opacity="0.980392"/><path d="M216 416.5C216 415.119 217.119 414 218.5 414 219.881 414 221 415.119 221 416.5 221 417.881 219.881 419 218.5 419 217.119 419 216 417.881 216 416.5Z" fill="#FF0000" fill-rule="evenodd" fill-opacity="0.980392"/><path d="M224 443.5C224 442.119 224.895 441 226 441 227.105 441 228 442.119 228 443.5 228 444.881 227.105 446 226 446 224.895 446 224 444.881 224 443.5Z" fill="#FF0000" fill-rule="evenodd" fill-opacity="0.980392"/><path d="M248 448.5C248 447.119 249.119 446 250.5 446 251.881 446 253 447.119 253 448.5 253 449.881 251.881 451 250.5 451 249.119 451 248 449.881 248 448.5Z" fill="#FF0000" fill-rule="evenodd" fill-opacity="0.980392"/><path d="M204 409.5C204 408.119 205.119 407 206.5 407 207.881 407 209 408.119 209 409.5 209 410.881 207.881 412 206.5 412 205.119 412 204 410.881 204 409.5Z" fill="#FF0000" fill-rule="evenodd" fill-opacity="0.980392"/><path d="M227 395.5C227 394.119 228.119 393 229.5 393 230.881 393 232 394.119 232 395.5 232 396.881 230.881 398 229.5 398 228.119 398 227 396.881 227 395.5Z" fill="#FF0000" fill-rule="evenodd" fill-opacity="0.980392"/><path d="M235 438C235 436.895 236.119 436 237.5 436 238.881 436 240 436.895 240 438 240 439.105 238.881 440 237.5 440 236.119 440 235 439.105 235 438Z" fill="#FF0000" fill-rule="evenodd" fill-opacity="0.980392"/><path d="M255 440.5C255 439.119 256.119 438 257.5 438 258.881 438 260 439.119 260 440.5 260 441.881 258.881 443 257.5 443 256.119 443 255 441.881 255 440.5Z" fill="#FF0000" fill-rule="evenodd" fill-opacity="0.980392"/><path d="M251 459.5C251 458.119 252.119 457 253.5 457 254.881 457 256 458.119 256 459.5 256 460.881 254.881 462 253.5 462 252.119 462 251 460.881 251 459.5Z" fill="#FF0000" fill-rule="evenodd" fill-opacity="0.980392"/><path d="M166 411.5C166 410.119 167.119 409 168.5 409 169.881 409 171 410.119 171 411.5 171 412.881 169.881 414 168.5 414 167.119 414 166 412.881 166 411.5Z" fill="#FF0000" fill-rule="evenodd" fill-opacity="0.980392"/><path d="M182 427.5C182 426.119 183.119 425 184.5 425 185.881 425 187 426.119 187 427.5 187 428.881 185.881 430 184.5 430 183.119 430 182 428.881 182 427.5Z" fill="#FF0000" fill-rule="evenodd" fill-opacity="0.980392"/><path d="M198 443.5C198 442.119 199.119 441 200.5 441 201.881 441 203 442.119 203 443.5 203 444.881 201.881 446 200.5 446 199.119 446 198 444.881 198 443.5Z" fill="#FF0000" fill-rule="evenodd" fill-opacity="0.980392"/><path d="M214 459.5C214 458.119 215.119 457 216.5 457 217.881 457 219 458.119 219 459.5 219 460.881 217.881 462 216.5 462 215.119 462 214 460.881 214 459.5Z" fill="#FF0000" fill-rule="evenodd" fill-opacity="0.980392"/><path d="M230 475.5C230 474.119 231.119 473 232.5 473 233.881 473 235 474.119 235 475.5 235 476.881 233.881 478 232.5 478 231.119 478 230 476.881 230 475.5Z" fill="#FF0000" fill-rule="evenodd" fill-opacity="0.980392"/><path d="M205 389C205 387.895 206.119 387 207.5 387 208.881 387 210 387.895 210 389 210 390.105 208.881 391 207.5 391 206.119 391 205 390.105 205 389Z" fill="#FF0000" fill-rule="evenodd" fill-opacity="0.980392"/><path d="M221 405C221 403.895 222.119 403 223.5 403 224.881 403 226 403.895 226 405 226 406.105 224.881 407 223.5 407 222.119 407 221 406.105 221 405Z" fill="#FF0000" fill-rule="evenodd" fill-opacity="0.980392"/><path d="M237 421C237 419.895 238.119 419 239.5 419 240.881 419 242 419.895 242 421 242 422.105 240.881 423 239.5 423 238.119 423 237 422.105 237 421Z" fill="#FF0000" fill-rule="evenodd" fill-opacity="0.980392"/><path d="M196 383.5C196 382.119 197.119 381 198.5 381 199.881 381 201 382.119 201 383.5 201 384.881 199.881 386 198.5 386 197.119 386 196 384.881 196 383.5Z" fill="#FF0000" fill-rule="evenodd" fill-opacity="0.980392"/><path d="M186 441.5C186 440.119 186.895 439 188 439 189.105 439 190 440.119 190 441.5 190 442.881 189.105 444 188 444 186.895 444 186 442.881 186 441.5Z" fill="#FF0000" fill-rule="evenodd" fill-opacity="0.980392"/><path d="M193 371.5C193 370.119 194.119 369 195.5 369 196.881 369 198 370.119 198 371.5 198 372.881 196.881 374 195.5 374 194.119 374 193 372.881 193 371.5Z" fill="#FF0000" fill-rule="evenodd" fill-opacity="0.980392"/><path d="M219 387C219 385.895 220.119 385 221.5 385 222.881 385 224 385.895 224 387 224 388.105 222.881 389 221.5 389 220.119 389 219 388.105 219 387Z" fill="#FF0000" fill-rule="evenodd" fill-opacity="0.980392"/><path d="M235 403C235 401.895 236.119 401 237.5 401 238.881 401 240 401.895 240 403 240 404.105 238.881 405 237.5 405 236.119 405 235 404.105 235 403Z" fill="#FF0000" fill-rule="evenodd" fill-opacity="0.980392"/><path d="M171 427.5C171 426.119 172.119 425 173.5 425 174.881 425 176 426.119 176 427.5 176 428.881 174.881 430 173.5 430 172.119 430 171 428.881 171 427.5Z" fill="#FF0000" fill-rule="evenodd" fill-opacity="0.980392"/><path d="M213 432.5C213 431.119 214.119 430 215.5 430 216.881 430 218 431.119 218 432.5 218 433.881 216.881 435 215.5 435 214.119 435 213 433.881 213 432.5Z" fill="#FF0000" fill-rule="evenodd" fill-opacity="0.980392"/><path d="M249 423.5C249 422.119 250.119 421 251.5 421 252.881 421 254 422.119 254 423.5 254 424.881 252.881 426 251.5 426 250.119 426 249 424.881 249 423.5Z" fill="#FF0000" fill-rule="evenodd" fill-opacity="0.980392"/><path d="M196 458C196 456.895 197.119 456 198.5 456 199.881 456 201 456.895 201 458 201 459.105 199.881 460 198.5 460 197.119 460 196 459.105 196 458Z" fill="#FF0000" fill-rule="evenodd" fill-opacity="0.980392"/><path d="M216 440C216 438.895 217.119 438 218.5 438 219.881 438 221 438.895 221 440 221 441.105 219.881 442 218.5 442 217.119 442 216 441.105 216 440Z" fill="#FF0000" fill-rule="evenodd" fill-opacity="0.980392"/><path d="M223 432C223 430.895 224.119 430 225.5 430 226.881 430 228 430.895 228 432 228 433.105 226.881 434 225.5 434 224.119 434 223 433.105 223 432Z" fill="#FF0000" fill-rule="evenodd" fill-opacity="0.980392"/><path d="M230 461.5C230 460.119 231.119 459 232.5 459 233.881 459 235 460.119 235 461.5 235 462.881 233.881 464 232.5 464 231.119 464 230 462.881 230 461.5Z" fill="#FF0000" fill-rule="evenodd" fill-opacity="0.980392"/><path d="M245 459.5C245 458.119 246.119 457 247.5 457 248.881 457 250 458.119 250 459.5 250 460.881 248.881 462 247.5 462 246.119 462 245 460.881 245 459.5Z" fill="#FF0000" fill-rule="evenodd" fill-opacity="0.980392"/><path d="M252 451.5C252 450.119 253.119 449 254.5 449 255.881 449 257 450.119 257 451.5 257 452.881 255.881 454 254.5 454 253.119 454 252 452.881 252 451.5Z" fill="#FF0000" fill-rule="evenodd" fill-opacity="0.980392"/><path d="M243 475.5C243 474.119 244.119 473 245.5 473 246.881 473 248 474.119 248 475.5 248 476.881 246.881 478 245.5 478 244.119 478 243 476.881 243 475.5Z" fill="#FF0000" fill-rule="evenodd" fill-opacity="0.980392"/><path d="M258 473.5C258 472.119 258.895 471 260 471 261.105 471 262 472.119 262 473.5 262 474.881 261.105 476 260 476 258.895 476 258 474.881 258 473.5Z" fill="#FF0000" fill-rule="evenodd" fill-opacity="0.980392"/><path d="M265 466C265 464.895 265.895 464 267 464 268.105 464 269 464.895 269 466 269 467.105 268.105 468 267 468 265.895 468 265 467.105 265 466Z" fill="#FF0000" fill-rule="evenodd" fill-opacity="0.980392"/><path d="M263 486C263 484.895 264.119 484 265.5 484 266.881 484 268 484.895 268 486 268 487.105 266.881 488 265.5 488 264.119 488 263 487.105 263 486Z" fill="#FF0000" fill-rule="evenodd" fill-opacity="0.980392"/><path d="M257 486C257 484.895 258.119 484 259.5 484 260.881 484 262 484.895 262 486 262 487.105 260.881 488 259.5 488 258.119 488 257 487.105 257 486Z" fill="#FF0000" fill-rule="evenodd" fill-opacity="0.980392"/><path d="M264 478.5C264 477.119 265.119 476 266.5 476 267.881 476 269 477.119 269 478.5 269 479.881 267.881 481 266.5 481 265.119 481 264 479.881 264 478.5Z" fill="#FF0000" fill-rule="evenodd" fill-opacity="0.980392"/><path d="M0.5-2.77778e-07 0.500101 182.31-0.499899 182.31-0.5 2.77778e-07ZM4.0001 180.976 0.000104987 188.976-3.9999 180.976Z" transform="matrix(1 0 0 -1 432.5 511.476)"/><path d="M432.5 511 614.81 511 614.81 512 432.5 512ZM613.476 507.5 621.476 511.5 613.476 515.5Z"/><text font-family="DengXian,DengXian_MSFontService,sans-serif" font-weight="400" font-size="15" transform="translate(515.447 535)">图<tspan x="14.6667" y="0">2</tspan></text><path d="M473 353.5C473 352.119 474.119 351 475.5 351 476.881 351 478 352.119 478 353.5 478 354.881 476.881 356 475.5 356 474.119 356 473 354.881 473 353.5Z" fill="#FF0000" fill-rule="evenodd" fill-opacity="0.980392"/><path d="M478 375.5C478 374.119 479.119 373 480.5 373 481.881 373 483 374.119 483 375.5 483 376.881 481.881 378 480.5 378 479.119 378 478 376.881 478 375.5Z" fill="#FF0000" fill-rule="evenodd" fill-opacity="0.980392"/><path d="M554 454C554 452.895 555.119 452 556.5 452 557.881 452 559 452.895 559 454 559 455.105 557.881 456 556.5 456 555.119 456 554 455.105 554 454Z" fill="#FF0000" fill-rule="evenodd" fill-opacity="0.980392"/><path d="M521 401.5C521 400.119 522.119 399 523.5 399 524.881 399 526 400.119 526 401.5 526 402.881 524.881 404 523.5 404 522.119 404 521 402.881 521 401.5Z" fill="#FF0000" fill-rule="evenodd" fill-opacity="0.980392"/><path d="M493 381.5C493 380.119 493.895 379 495 379 496.105 379 497 380.119 497 381.5 497 382.881 496.105 384 495 384 493.895 384 493 382.881 493 381.5Z" fill="#FF0000" fill-rule="evenodd" fill-opacity="0.980392"/><path d="M553 433.5C553 432.119 554.119 431 555.5 431 556.881 431 558 432.119 558 433.5 558 434.881 556.881 436 555.5 436 554.119 436 553 434.881 553 433.5Z" fill="#FF0000" fill-rule="evenodd" fill-opacity="0.980392"/><path d="M487 368.5C487 367.119 488.119 366 489.5 366 490.881 366 492 367.119 492 368.5 492 369.881 490.881 371 489.5 371 488.119 371 487 369.881 487 368.5Z" fill="#FF0000" fill-rule="evenodd" fill-opacity="0.980392"/><path d="M506 387.5C506 386.119 507.119 385 508.5 385 509.881 385 511 386.119 511 387.5 511 388.881 509.881 390 508.5 390 507.119 390 506 388.881 506 387.5Z" fill="#FF0000" fill-rule="evenodd" fill-opacity="0.980392"/><path d="M505 402C505 400.895 506.119 400 507.5 400 508.881 400 510 400.895 510 402 510 403.105 508.881 404 507.5 404 506.119 404 505 403.105 505 402Z" fill="#FF0000" fill-rule="evenodd" fill-opacity="0.980392"/><path d="M521 418C521 416.895 522.119 416 523.5 416 524.881 416 526 416.895 526 418 526 419.105 524.881 420 523.5 420 522.119 420 521 419.105 521 418Z" fill="#FF0000" fill-rule="evenodd" fill-opacity="0.980392"/><path d="M537 434C537 432.895 538.119 432 539.5 432 540.881 432 542 432.895 542 434 542 435.105 540.881 436 539.5 436 538.119 436 537 435.105 537 434Z" fill="#FF0000" fill-rule="evenodd" fill-opacity="0.980392"/><path d="M489 356.5C489 355.119 490.119 354 491.5 354 492.881 354 494 355.119 494 356.5 494 357.881 492.881 359 491.5 359 490.119 359 489 357.881 489 356.5Z" fill="#FF0000" fill-rule="evenodd" fill-opacity="0.980392"/><path d="M489 391.5C489 390.119 490.119 389 491.5 389 492.881 389 494 390.119 494 391.5 494 392.881 492.881 394 491.5 394 490.119 394 489 392.881 489 391.5Z" fill="#FF0000" fill-rule="evenodd" fill-opacity="0.980392"/><path d="M534 383.5C534 382.119 534.895 381 536 381 537.105 381 538 382.119 538 383.5 538 384.881 537.105 386 536 386 534.895 386 534 384.881 534 383.5Z" fill="#FF0000" fill-rule="evenodd" fill-opacity="0.980392"/><path d="M550 399.5C550 398.119 550.895 397 552 397 553.105 397 554 398.119 554 399.5 554 400.881 553.105 402 552 402 550.895 402 550 400.881 550 399.5Z" fill="#FF0000" fill-rule="evenodd" fill-opacity="0.980392"/><path d="M566 415.5C566 414.119 566.895 413 568 413 569.105 413 570 414.119 570 415.5 570 416.881 569.105 418 568 418 566.895 418 566 416.881 566 415.5Z" fill="#FF0000" fill-rule="evenodd" fill-opacity="0.980392"/><path d="M504 367.5C504 366.119 505.119 365 506.5 365 507.881 365 509 366.119 509 367.5 509 368.881 507.881 370 506.5 370 505.119 370 504 368.881 504 367.5Z" fill="#FF0000" fill-rule="evenodd" fill-opacity="0.980392"/><path d="M520 383.5C520 382.119 521.119 381 522.5 381 523.881 381 525 382.119 525 383.5 525 384.881 523.881 386 522.5 386 521.119 386 520 384.881 520 383.5Z" fill="#FF0000" fill-rule="evenodd" fill-opacity="0.980392"/><path d="M536 399.5C536 398.119 537.119 397 538.5 397 539.881 397 541 398.119 541 399.5 541 400.881 539.881 402 538.5 402 537.119 402 536 400.881 536 399.5Z" fill="#FF0000" fill-rule="evenodd" fill-opacity="0.980392"/><path d="M544 426.5C544 425.119 544.895 424 546 424 547.105 424 548 425.119 548 426.5 548 427.881 547.105 429 546 429 544.895 429 544 427.881 544 426.5Z" fill="#FF0000" fill-rule="evenodd" fill-opacity="0.980392"/><path d="M568 431.5C568 430.119 569.119 429 570.5 429 571.881 429 573 430.119 573 431.5 573 432.881 571.881 434 570.5 434 569.119 434 568 432.881 568 431.5Z" fill="#FF0000" fill-rule="evenodd" fill-opacity="0.980392"/><path d="M524 392.5C524 391.119 525.119 390 526.5 390 527.881 390 529 391.119 529 392.5 529 393.881 527.881 395 526.5 395 525.119 395 524 393.881 524 392.5Z" fill="#FF0000" fill-rule="evenodd" fill-opacity="0.980392"/><path d="M547 378.5C547 377.119 548.119 376 549.5 376 550.881 376 552 377.119 552 378.5 552 379.881 550.881 381 549.5 381 548.119 381 547 379.881 547 378.5Z" fill="#FF0000" fill-rule="evenodd" fill-opacity="0.980392"/><path d="M555 421.5C555 420.119 556.119 419 557.5 419 558.881 419 560 420.119 560 421.5 560 422.881 558.881 424 557.5 424 556.119 424 555 422.881 555 421.5Z" fill="#FF0000" fill-rule="evenodd" fill-opacity="0.980392"/><path d="M575 423.5C575 422.119 576.119 421 577.5 421 578.881 421 580 422.119 580 423.5 580 424.881 578.881 426 577.5 426 576.119 426 575 424.881 575 423.5Z" fill="#FF0000" fill-rule="evenodd" fill-opacity="0.980392"/><path d="M571 443C571 441.895 571.895 441 573 441 574.105 441 575 441.895 575 443 575 444.105 574.105 445 573 445 571.895 445 571 444.105 571 443Z" fill="#FF0000" fill-rule="evenodd" fill-opacity="0.980392"/><path d="M486 395C486 393.895 486.895 393 488 393 489.105 393 490 393.895 490 395 490 396.105 489.105 397 488 397 486.895 397 486 396.105 486 395Z" fill="#FF0000" fill-rule="evenodd" fill-opacity="0.980392"/><path d="M502 411C502 409.895 502.895 409 504 409 505.105 409 506 409.895 506 411 506 412.105 505.105 413 504 413 502.895 413 502 412.105 502 411Z" fill="#FF0000" fill-rule="evenodd" fill-opacity="0.980392"/><path d="M518 427C518 425.895 518.895 425 520 425 521.105 425 522 425.895 522 427 522 428.105 521.105 429 520 429 518.895 429 518 428.105 518 427Z" fill="#FF0000" fill-rule="evenodd" fill-opacity="0.980392"/><path d="M534 443C534 441.895 534.895 441 536 441 537.105 441 538 441.895 538 443 538 444.105 537.105 445 536 445 534.895 445 534 444.105 534 443Z" fill="#FF0000" fill-rule="evenodd" fill-opacity="0.980392"/><path d="M550 459C550 457.895 550.895 457 552 457 553.105 457 554 457.895 554 459 554 460.105 553.105 461 552 461 550.895 461 550 460.105 550 459Z" fill="#FF0000" fill-rule="evenodd" fill-opacity="0.980392"/><path d="M525 372.5C525 371.119 525.895 370 527 370 528.105 370 529 371.119 529 372.5 529 373.881 528.105 375 527 375 525.895 375 525 373.881 525 372.5Z" fill="#FF0000" fill-rule="evenodd" fill-opacity="0.980392"/><path d="M541 388.5C541 387.119 541.895 386 543 386 544.105 386 545 387.119 545 388.5 545 389.881 544.105 391 543 391 541.895 391 541 389.881 541 388.5Z" fill="#FF0000" fill-rule="evenodd" fill-opacity="0.980392"/><path d="M557 404.5C557 403.119 557.895 402 559 402 560.105 402 561 403.119 561 404.5 561 405.881 560.105 407 559 407 557.895 407 557 405.881 557 404.5Z" fill="#FF0000" fill-rule="evenodd" fill-opacity="0.980392"/><path d="M516 366.5C516 365.119 516.895 364 518 364 519.105 364 520 365.119 520 366.5 520 367.881 519.105 369 518 369 516.895 369 516 367.881 516 366.5Z" fill="#FF0000" fill-rule="evenodd" fill-opacity="0.980392"/><path d="M505 424.5C505 423.119 506.119 422 507.5 422 508.881 422 510 423.119 510 424.5 510 425.881 508.881 427 507.5 427 506.119 427 505 425.881 505 424.5Z" fill="#FF0000" fill-rule="evenodd" fill-opacity="0.980392"/><path d="M513 354.5C513 353.119 514.119 352 515.5 352 516.881 352 518 353.119 518 354.5 518 355.881 516.881 357 515.5 357 514.119 357 513 355.881 513 354.5Z" fill="#FF0000" fill-rule="evenodd" fill-opacity="0.980392"/><path d="M539 370.5C539 369.119 540.119 368 541.5 368 542.881 368 544 369.119 544 370.5 544 371.881 542.881 373 541.5 373 540.119 373 539 371.881 539 370.5Z" fill="#FF0000" fill-rule="evenodd" fill-opacity="0.980392"/><path d="M555 386.5C555 385.119 556.119 384 557.5 384 558.881 384 560 385.119 560 386.5 560 387.881 558.881 389 557.5 389 556.119 389 555 387.881 555 386.5Z" fill="#FF0000" fill-rule="evenodd" fill-opacity="0.980392"/><path d="M491 410.5C491 409.119 491.895 408 493 408 494.105 408 495 409.119 495 410.5 495 411.881 494.105 413 493 413 491.895 413 491 411.881 491 410.5Z" fill="#FF0000" fill-rule="evenodd" fill-opacity="0.980392"/><path d="M533 416C533 414.895 533.895 414 535 414 536.105 414 537 414.895 537 416 537 417.105 536.105 418 535 418 533.895 418 533 417.105 533 416Z" fill="#FF0000" fill-rule="evenodd" fill-opacity="0.980392"/><path d="M569 406.5C569 405.119 570.119 404 571.5 404 572.881 404 574 405.119 574 406.5 574 407.881 572.881 409 571.5 409 570.119 409 569 407.881 569 406.5Z" fill="#FF0000" fill-rule="evenodd" fill-opacity="0.980392"/><path d="M516 441.5C516 440.119 516.895 439 518 439 519.105 439 520 440.119 520 441.5 520 442.881 519.105 444 518 444 516.895 444 516 442.881 516 441.5Z" fill="#FF0000" fill-rule="evenodd" fill-opacity="0.980392"/><path d="M536 423C536 421.895 537.119 421 538.5 421 539.881 421 541 421.895 541 423 541 424.105 539.881 425 538.5 425 537.119 425 536 424.105 536 423Z" fill="#FF0000" fill-rule="evenodd" fill-opacity="0.980392"/><path d="M543 415.5C543 414.119 544.119 413 545.5 413 546.881 413 548 414.119 548 415.5 548 416.881 546.881 418 545.5 418 544.119 418 543 416.881 543 415.5Z" fill="#FF0000" fill-rule="evenodd" fill-opacity="0.980392"/><path d="M550 444.5C550 443.119 551.119 442 552.5 442 553.881 442 555 443.119 555 444.5 555 445.881 553.881 447 552.5 447 551.119 447 550 445.881 550 444.5Z" fill="#FF0000" fill-rule="evenodd" fill-opacity="0.980392"/><path d="M565 442.5C565 441.119 565.895 440 567 440 568.105 440 569 441.119 569 442.5 569 443.881 568.105 445 567 445 565.895 445 565 443.881 565 442.5Z" fill="#FF0000" fill-rule="evenodd" fill-opacity="0.980392"/><path d="M572 435C572 433.895 572.895 433 574 433 575.105 433 576 433.895 576 435 576 436.105 575.105 437 574 437 572.895 437 572 436.105 572 435Z" fill="#FF0000" fill-rule="evenodd" fill-opacity="0.980392"/><path d="M563 459C563 457.895 564.119 457 565.5 457 566.881 457 568 457.895 568 459 568 460.105 566.881 461 565.5 461 564.119 461 563 460.105 563 459Z" fill="#FF0000" fill-rule="evenodd" fill-opacity="0.980392"/><path d="M577 457C577 455.895 578.119 455 579.5 455 580.881 455 582 455.895 582 457 582 458.105 580.881 459 579.5 459 578.119 459 577 458.105 577 457Z" fill="#FF0000" fill-rule="evenodd" fill-opacity="0.980392"/><path d="M584 449.5C584 448.119 585.119 447 586.5 447 587.881 447 589 448.119 589 449.5 589 450.881 587.881 452 586.5 452 585.119 452 584 450.881 584 449.5Z" fill="#FF0000" fill-rule="evenodd" fill-opacity="0.980392"/><path d="M583 469.5C583 468.119 583.895 467 585 467 586.105 467 587 468.119 587 469.5 587 470.881 586.105 472 585 472 583.895 472 583 470.881 583 469.5Z" fill="#FF0000" fill-rule="evenodd" fill-opacity="0.980392"/><path d="M577 469.5C577 468.119 578.119 467 579.5 467 580.881 467 582 468.119 582 469.5 582 470.881 580.881 472 579.5 472 578.119 472 577 470.881 577 469.5Z" fill="#FF0000" fill-rule="evenodd" fill-opacity="0.980392"/><path d="M584 461.5C584 460.119 585.119 459 586.5 459 587.881 459 589 460.119 589 461.5 589 462.881 587.881 464 586.5 464 585.119 464 584 462.881 584 461.5Z" fill="#FF0000" fill-rule="evenodd" fill-opacity="0.980392"/><path d="M467 473.5C467 472.119 468.119 471 469.5 471 470.881 471 472 472.119 472 473.5 472 474.881 470.881 476 469.5 476 468.119 476 467 474.881 467 473.5Z" fill="#5B9BD5" fill-rule="evenodd" fill-opacity="0.980392"/><path d="M464 454.5C464 453.119 465.119 452 466.5 452 467.881 452 469 453.119 469 454.5 469 455.881 467.881 457 466.5 457 465.119 457 464 455.881 464 454.5Z" fill="#5B9BD5" fill-rule="evenodd" fill-opacity="0.980392"/><path d="M454 467.5C454 466.119 455.119 465 456.5 465 457.881 465 459 466.119 459 467.5 459 468.881 457.881 470 456.5 470 455.119 470 454 468.881 454 467.5Z" fill="#5B9BD5" fill-rule="evenodd" fill-opacity="0.980392"/><path d="M474 478.5C474 477.119 475.119 476 476.5 476 477.881 476 479 477.119 479 478.5 479 479.881 477.881 481 476.5 481 475.119 481 474 479.881 474 478.5Z" fill="#5B9BD5" fill-rule="evenodd" fill-opacity="0.980392"/><path d="M467 462C467 460.895 467.895 460 469 460 470.105 460 471 460.895 471 462 471 463.105 470.105 464 469 464 467.895 464 467 463.105 467 462Z" fill="#5B9BD5" fill-rule="evenodd" fill-opacity="0.980392"/><path d="M476.651 469.946C476.719 468.622 477.847 467.604 479.171 467.672 480.495 467.74 481.513 468.868 481.445 470.192 481.377 471.515 480.249 472.533 478.925 472.465 477.601 472.398 476.583 471.269 476.651 469.946Z" fill="#5B9BD5" fill-rule="evenodd" fill-opacity="0.980392"/><path d="M483 489.5C483 488.119 484.119 487 485.5 487 486.881 487 488 488.119 488 489.5 488 490.881 486.881 492 485.5 492 484.119 492 483 490.881 483 489.5Z" fill="#5B9BD5" fill-rule="evenodd" fill-opacity="0.980392"/><path d="M475 461.5C475 460.119 476.119 459 477.5 459 478.881 459 480 460.119 480 461.5 480 462.881 478.881 464 477.5 464 476.119 464 475 462.881 475 461.5Z" fill="#5B9BD5" fill-rule="evenodd" fill-opacity="0.980392"/><path d="M474 478.5C474 477.119 475.119 476 476.5 476 477.881 476 479 477.119 479 478.5 479 479.881 477.881 481 476.5 481 475.119 481 474 479.881 474 478.5Z" fill="#5B9BD5" fill-rule="evenodd" fill-opacity="0.980392"/><path d="M482 480.5C482 479.119 483.119 478 484.5 478 485.881 478 487 479.119 487 480.5 487 481.881 485.881 483 484.5 483 483.119 483 482 481.881 482 480.5Z" fill="#5B9BD5" fill-rule="evenodd" fill-opacity="0.980392"/><path d="M466 481.5C466 480.119 467.119 479 468.5 479 469.881 479 471 480.119 471 481.5 471 482.881 469.881 484 468.5 484 467.119 484 466 482.881 466 481.5Z" fill="#5B9BD5" fill-rule="evenodd" fill-opacity="0.980392"/><path d="M472.971 486.226C473.039 484.902 474.167 483.884 475.49 483.952 476.814 484.02 477.832 485.148 477.764 486.472 477.696 487.796 476.568 488.814 475.244 488.746 473.921 488.678 472.903 487.55 472.971 486.226Z" fill="#5B9BD5" fill-rule="evenodd" fill-opacity="0.980392"/><path d="M450 461.5C450 460.119 451.119 459 452.5 459 453.881 459 455 460.119 455 461.5 455 462.881 453.881 464 452.5 464 451.119 464 450 462.881 450 461.5Z" fill="#5B9BD5" fill-rule="evenodd" fill-opacity="0.980392"/><path d="M449 449.5C449 448.119 450.119 447 451.5 447 452.881 447 454 448.119 454 449.5 454 450.881 452.881 452 451.5 452 450.119 452 449 450.881 449 449.5Z" fill="#5B9BD5" fill-rule="evenodd" fill-opacity="0.980392"/><path d="M458 475C458 473.895 459.119 473 460.5 473 461.881 473 463 473.895 463 475 463 476.105 461.881 477 460.5 477 459.119 477 458 476.105 458 475Z" fill="#5B9BD5" fill-rule="evenodd" fill-opacity="0.980392"/><path d="M457 457C457 455.895 458.119 455 459.5 455 460.881 455 462 455.895 462 457 462 458.105 460.881 459 459.5 459 458.119 459 457 458.105 457 457Z" fill="#5B9BD5" fill-rule="evenodd" fill-opacity="0.980392"/><path d="M460.651 466.727C460.719 465.403 461.847 464.385 463.171 464.453 464.495 464.521 465.513 465.649 465.445 466.973 465.377 468.296 464.249 469.314 462.925 469.246 461.601 469.179 460.583 468.05 460.651 466.727Z" fill="#5B9BD5" fill-rule="evenodd" fill-opacity="0.980392"/><path d="M458 475C458 473.895 459.119 473 460.5 473 461.881 473 463 473.895 463 475 463 476.105 461.881 477 460.5 477 459.119 477 458 476.105 458 475Z" fill="#5B9BD5" fill-rule="evenodd" fill-opacity="0.980392"/><path d="M483 472.5C483 471.119 484.119 470 485.5 470 486.881 470 488 471.119 488 472.5 488 473.881 486.881 475 485.5 475 484.119 475 483 473.881 483 472.5Z" fill="#5B9BD5" fill-rule="evenodd" fill-opacity="0.980392"/></g></svg>