<?xml version="1.0" encoding="UTF-8" standalone="no"?>
<!DOCTYPE svg PUBLIC "-//W3C//DTD SVG 1.1//EN" "http://www.w3.org/Graphics/SVG/1.1/DTD/svg11.dtd">
<!-- 由 Microsoft Visio, SVG Export 生成 22.svg Page-2 -->
<svg xmlns="http://www.w3.org/2000/svg" xmlns:xlink="http://www.w3.org/1999/xlink" xmlns:ev="http://www.w3.org/2001/xml-events"
		xmlns:v="http://schemas.microsoft.com/visio/2003/SVGExtensions/" width="2.56679in" height="1.95433in"
		viewBox="0 0 184.809 140.712" xml:space="preserve" color-interpolation-filters="sRGB" class="st7">
	<v:documentProperties v:langID="2052" v:metric="true" v:viewMarkup="false">
		<v:userDefs>
			<v:ud v:nameU="msvSubprocessMaster" v:prompt="" v:val="VT4(Rectangle)"/>
			<v:ud v:nameU="msvNoAutoConnect" v:val="VT0(1):26"/>
		</v:userDefs>
	</v:documentProperties>

	<style type="text/css">
	<![CDATA[
		.st1 {fill:#ffffff;stroke:#000000;stroke-width:1}
		.st2 {fill:#0c0c0c;font-family:Calibri;font-size:1.5em}
		.st3 {marker-end:url(#mrkr4-25);stroke:#000000;stroke-linecap:round;stroke-linejoin:round;stroke-width:1}
		.st4 {fill:#000000;fill-opacity:1;stroke:#000000;stroke-opacity:1;stroke-width:0.28409090909091}
		.st5 {fill:none;stroke:none;stroke-width:0.25}
		.st6 {fill:#0c0c0c;font-family:Calibri;font-size:1.00001em}
		.st7 {fill:none;fill-rule:evenodd;font-size:12px;overflow:visible;stroke-linecap:square;stroke-miterlimit:3}
	]]>
	</style>

	<defs id="Markers">
		<g id="lend4">
			<path d="M 2 1 L 0 0 L 2 -1 L 2 1 " style="stroke:none"/>
		</g>
		<marker id="mrkr4-25" class="st4" v:arrowType="4" v:arrowSize="2" v:setback="7.04" refX="-7.04" orient="auto"
				markerUnits="strokeWidth" overflow="visible">
			<use xlink:href="#lend4" transform="scale(-3.52,-3.52) "/>
		</marker>
	</defs>
	<g v:mID="4" v:index="2" v:groupContext="foregroundPage">
		<v:userDefs>
			<v:ud v:nameU="msvThemeOrder" v:val="VT0(0):26"/>
		</v:userDefs>
		<title>页-2</title>
		<v:pageProperties v:drawingScale="0.0393701" v:pageScale="0.0393701" v:drawingUnits="24" v:shadowOffsetX="8.50394"
				v:shadowOffsetY="-8.50394"/>
		<v:layer v:name="连接线" v:index="0"/>
		<g id="shape13-1" v:mID="13" v:groupContext="shape" transform="translate(24.0768,-75.6929)">
			<title>圆形</title>
			<desc>A</desc>
			<v:userDefs>
				<v:ud v:nameU="visVersion" v:val="VT0(15):26"/>
			</v:userDefs>
			<v:textBlock v:margins="rect(4,4,4,4)" v:tabSpace="42.5197"/>
			<v:textRect cx="14.1732" cy="126.538" width="24.81" height="21.2598"/>
			<path d="M0 126.54 A14.1732 14.1732 0 0 1 28.35 126.54 A14.1732 14.1732 0 1 1 0 126.54 Z" class="st1"/>
			<text x="8.97" y="131.94" class="st2" v:langID="2052"><v:paragraph v:horizAlign="1"/><v:tabList/>A</text>		</g>
		<g id="shape14-4" v:mID="14" v:groupContext="shape" transform="translate(80.7697,-75.6929)">
			<title>圆形.2</title>
			<desc>B</desc>
			<v:userDefs>
				<v:ud v:nameU="visVersion" v:val="VT0(15):26"/>
			</v:userDefs>
			<v:textBlock v:margins="rect(4,4,4,4)" v:tabSpace="42.5197"/>
			<v:textRect cx="14.1732" cy="126.538" width="24.81" height="21.2598"/>
			<path d="M0 126.54 A14.1732 14.1732 0 0 1 28.35 126.54 A14.1732 14.1732 0 1 1 0 126.54 Z" class="st1"/>
			<text x="9.28" y="131.94" class="st2" v:langID="2052"><v:paragraph v:horizAlign="1"/><v:tabList/>B</text>		</g>
		<g id="shape15-7" v:mID="15" v:groupContext="shape" transform="translate(137.463,-75.6929)">
			<title>圆形.3</title>
			<desc>C</desc>
			<v:userDefs>
				<v:ud v:nameU="visVersion" v:val="VT0(15):26"/>
			</v:userDefs>
			<v:textBlock v:margins="rect(4,4,4,4)" v:tabSpace="42.5197"/>
			<v:textRect cx="14.1732" cy="126.538" width="24.81" height="21.2598"/>
			<path d="M0 126.54 A14.1732 14.1732 0 0 1 28.35 126.54 A14.1732 14.1732 0 1 1 0 126.54 Z" class="st1"/>
			<text x="9.37" y="131.94" class="st2" v:langID="2052"><v:paragraph v:horizAlign="1"/><v:tabList/>C</text>		</g>
		<g id="group16-10" transform="translate(18.25,-19)" v:mID="16" v:groupContext="group">
			<title>工作表.16</title>
			<g id="shape17-11" v:mID="17" v:groupContext="shape" transform="translate(5.82678,0)">
				<title>圆形.14</title>
				<desc>1</desc>
				<v:userDefs>
					<v:ud v:nameU="visVersion" v:val="VT0(15):26"/>
				</v:userDefs>
				<v:textBlock v:margins="rect(4,4,4,4)" v:tabSpace="42.5197"/>
				<v:textRect cx="14.1732" cy="126.538" width="24.81" height="21.2598"/>
				<path d="M0 126.54 A14.1732 14.1732 0 0 1 28.35 126.54 A14.1732 14.1732 0 1 1 0 126.54 Z" class="st1"/>
				<text x="9.61" y="131.94" class="st2" v:langID="2052"><v:paragraph v:horizAlign="1"/><v:tabList/>1</text>			</g>
			<g id="shape18-14" v:mID="18" v:groupContext="shape" transform="translate(62.5197,0)">
				<title>圆形.15</title>
				<desc>2</desc>
				<v:userDefs>
					<v:ud v:nameU="visVersion" v:val="VT0(15):26"/>
				</v:userDefs>
				<v:textBlock v:margins="rect(4,4,4,4)" v:tabSpace="42.5197"/>
				<v:textRect cx="14.1732" cy="126.538" width="24.81" height="21.2598"/>
				<path d="M0 126.54 A14.1732 14.1732 0 0 1 28.35 126.54 A14.1732 14.1732 0 1 1 0 126.54 Z" class="st1"/>
				<text x="9.61" y="131.94" class="st2" v:langID="2052"><v:paragraph v:horizAlign="1"/><v:tabList/>2</text>			</g>
			<g id="shape19-17" v:mID="19" v:groupContext="shape" transform="translate(119.213,0)">
				<title>圆形.16</title>
				<desc>3</desc>
				<v:userDefs>
					<v:ud v:nameU="visVersion" v:val="VT0(15):26"/>
				</v:userDefs>
				<v:textBlock v:margins="rect(4,4,4,4)" v:tabSpace="42.5197"/>
				<v:textRect cx="14.1732" cy="126.538" width="24.81" height="21.2598"/>
				<path d="M0 126.54 A14.1732 14.1732 0 0 1 28.35 126.54 A14.1732 14.1732 0 1 1 0 126.54 Z" class="st1"/>
				<text x="9.61" y="131.94" class="st2" v:langID="2052"><v:paragraph v:horizAlign="1"/><v:tabList/>3</text>			</g>
			<g id="shape20-20" v:mID="20" v:groupContext="shape" v:layerMember="0" transform="translate(34.1732,-63.7795)">
				<title>动态连接线.17</title>
				<path d="M0 133.63 L21.31 133.63" class="st3"/>
			</g>
			<g id="shape21-26" v:mID="21" v:groupContext="shape" v:layerMember="0" transform="translate(90.8662,-63.7795)">
				<title>动态连接线.18</title>
				<path d="M0 133.63 L21.31 133.63" class="st3"/>
			</g>
			<g id="shape22-31" v:mID="22" v:groupContext="shape" v:layerMember="0" transform="translate(27.0866,-28.3465)">
				<title>动态连接线.19</title>
				<path d="M-7.09 140.71 L-7.09 119.41" class="st3"/>
			</g>
			<g id="shape23-36" v:mID="23" v:groupContext="shape" v:layerMember="0" transform="translate(123.363,-24.1965)">
				<title>动态连接线.21</title>
				<path d="M0 140.71 L-86.79 106.64" class="st3"/>
			</g>
			<g id="shape24-41" v:mID="24" v:groupContext="shape" v:layerMember="0" transform="translate(123.363,-24.1965)">
				<title>动态连接线.22</title>
				<path d="M0 140.71 L-31.67 109.04" class="st3"/>
			</g>
			<g id="shape25-46" v:mID="25" v:groupContext="shape" v:layerMember="0" transform="translate(66.6696,-24.1965)">
				<title>动态连接线.23</title>
				<path d="M0 140.71 L-31.67 109.04" class="st3"/>
			</g>
			<g id="shape26-51" v:mID="26" v:groupContext="shape" transform="translate(7.99361E-15,-91.5512)">
				<title>工作表.26</title>
				<desc>n=3</desc>
				<v:textBlock v:margins="rect(4,4,4,4)" v:tabSpace="42.5197"/>
				<v:textRect cx="16.2992" cy="135.751" width="32.6" height="9.92126"/>
				<rect x="0" y="130.79" width="32.5984" height="9.92126" class="st5"/>
				<text x="7.12" y="139.35" class="st6" v:langID="2052"><v:paragraph v:horizAlign="1"/><v:tabList/>n=3</text>			</g>
		</g>
	</g>
</svg>
