<?xml version="1.0" encoding="UTF-8" standalone="no"?>
<!DOCTYPE svg PUBLIC "-//W3C//DTD SVG 1.1//EN" "http://www.w3.org/Graphics/SVG/1.1/DTD/svg11.dtd">
<!-- 由 Microsoft Visio, SVG Export 生成 33.svg Page-3 -->
<svg xmlns="http://www.w3.org/2000/svg" xmlns:xlink="http://www.w3.org/1999/xlink" xmlns:ev="http://www.w3.org/2001/xml-events"
		xmlns:v="http://schemas.microsoft.com/visio/2003/SVGExtensions/" width="3.35419in" height="1.95433in"
		viewBox="0 0 241.502 140.712" xml:space="preserve" color-interpolation-filters="sRGB" class="st7">
	<v:documentProperties v:langID="2052" v:metric="true" v:viewMarkup="false">
		<v:userDefs>
			<v:ud v:nameU="msvSubprocessMaster" v:prompt="" v:val="VT4(Rectangle)"/>
			<v:ud v:nameU="msvNoAutoConnect" v:val="VT0(1):26"/>
		</v:userDefs>
	</v:documentProperties>

	<style type="text/css">
	<![CDATA[
		.st1 {fill:#ffffff;stroke:#000000;stroke-width:1}
		.st2 {fill:#0c0c0c;font-family:Calibri;font-size:1.5em}
		.st3 {marker-end:url(#mrkr4-25);stroke:#000000;stroke-linecap:round;stroke-linejoin:round;stroke-width:1}
		.st4 {fill:#000000;fill-opacity:1;stroke:#000000;stroke-opacity:1;stroke-width:0.28409090909091}
		.st5 {fill:none;stroke:none;stroke-width:0.25}
		.st6 {fill:#0c0c0c;font-family:Calibri;font-size:1.00001em}
		.st7 {fill:none;fill-rule:evenodd;font-size:12px;overflow:visible;stroke-linecap:square;stroke-miterlimit:3}
	]]>
	</style>

	<defs id="Markers">
		<g id="lend4">
			<path d="M 2 1 L 0 0 L 2 -1 L 2 1 " style="stroke:none"/>
		</g>
		<marker id="mrkr4-25" class="st4" v:arrowType="4" v:arrowSize="2" v:setback="7.04" refX="-7.04" orient="auto"
				markerUnits="strokeWidth" overflow="visible">
			<use xlink:href="#lend4" transform="scale(-3.52,-3.52) "/>
		</marker>
	</defs>
	<g v:mID="5" v:index="3" v:groupContext="foregroundPage">
		<v:userDefs>
			<v:ud v:nameU="msvThemeOrder" v:val="VT0(0):26"/>
		</v:userDefs>
		<title>页-3</title>
		<v:pageProperties v:drawingScale="0.0393701" v:pageScale="0.0393701" v:drawingUnits="24" v:shadowOffsetX="8.50394"
				v:shadowOffsetY="-8.50394"/>
		<v:layer v:name="连接线" v:index="0"/>
		<g id="group1-1" transform="translate(18.25,-19)" v:mID="1" v:groupContext="group">
			<title>工作表.1</title>
			<g id="shape2-2" v:mID="2" v:groupContext="shape" transform="translate(5.82678,-56.6929)">
				<title>圆形.27</title>
				<desc>A</desc>
				<v:userDefs>
					<v:ud v:nameU="visVersion" v:val="VT0(15):26"/>
				</v:userDefs>
				<v:textBlock v:margins="rect(4,4,4,4)" v:tabSpace="42.5197"/>
				<v:textRect cx="14.1732" cy="126.538" width="24.81" height="21.2598"/>
				<path d="M0 126.54 A14.1732 14.1732 0 0 1 28.35 126.54 A14.1732 14.1732 0 1 1 0 126.54 Z" class="st1"/>
				<text x="8.97" y="131.94" class="st2" v:langID="2052"><v:paragraph v:horizAlign="1"/><v:tabList/>A</text>			</g>
			<g id="shape3-5" v:mID="3" v:groupContext="shape" transform="translate(62.5197,-56.6929)">
				<title>圆形.28</title>
				<desc>B</desc>
				<v:userDefs>
					<v:ud v:nameU="visVersion" v:val="VT0(15):26"/>
				</v:userDefs>
				<v:textBlock v:margins="rect(4,4,4,4)" v:tabSpace="42.5197"/>
				<v:textRect cx="14.1732" cy="126.538" width="24.81" height="21.2598"/>
				<path d="M0 126.54 A14.1732 14.1732 0 0 1 28.35 126.54 A14.1732 14.1732 0 1 1 0 126.54 Z" class="st1"/>
				<text x="9.28" y="131.94" class="st2" v:langID="2052"><v:paragraph v:horizAlign="1"/><v:tabList/>B</text>			</g>
			<g id="shape4-8" v:mID="4" v:groupContext="shape" transform="translate(119.213,-56.6929)">
				<title>圆形.29</title>
				<desc>C</desc>
				<v:userDefs>
					<v:ud v:nameU="visVersion" v:val="VT0(15):26"/>
				</v:userDefs>
				<v:textBlock v:margins="rect(4,4,4,4)" v:tabSpace="42.5197"/>
				<v:textRect cx="14.1732" cy="126.538" width="24.81" height="21.2598"/>
				<path d="M0 126.54 A14.1732 14.1732 0 0 1 28.35 126.54 A14.1732 14.1732 0 1 1 0 126.54 Z" class="st1"/>
				<text x="9.37" y="131.94" class="st2" v:langID="2052"><v:paragraph v:horizAlign="1"/><v:tabList/>C</text>			</g>
			<g id="shape5-11" v:mID="5" v:groupContext="shape" transform="translate(5.82678,0)">
				<title>圆形.30</title>
				<desc>1</desc>
				<v:userDefs>
					<v:ud v:nameU="visVersion" v:val="VT0(15):26"/>
				</v:userDefs>
				<v:textBlock v:margins="rect(4,4,4,4)" v:tabSpace="42.5197"/>
				<v:textRect cx="14.1732" cy="126.538" width="24.81" height="21.2598"/>
				<path d="M0 126.54 A14.1732 14.1732 0 0 1 28.35 126.54 A14.1732 14.1732 0 1 1 0 126.54 Z" class="st1"/>
				<text x="9.61" y="131.94" class="st2" v:langID="2052"><v:paragraph v:horizAlign="1"/><v:tabList/>1</text>			</g>
			<g id="shape6-14" v:mID="6" v:groupContext="shape" transform="translate(62.5197,0)">
				<title>圆形.31</title>
				<desc>2</desc>
				<v:userDefs>
					<v:ud v:nameU="visVersion" v:val="VT0(15):26"/>
				</v:userDefs>
				<v:textBlock v:margins="rect(4,4,4,4)" v:tabSpace="42.5197"/>
				<v:textRect cx="14.1732" cy="126.538" width="24.81" height="21.2598"/>
				<path d="M0 126.54 A14.1732 14.1732 0 0 1 28.35 126.54 A14.1732 14.1732 0 1 1 0 126.54 Z" class="st1"/>
				<text x="9.61" y="131.94" class="st2" v:langID="2052"><v:paragraph v:horizAlign="1"/><v:tabList/>2</text>			</g>
			<g id="shape7-17" v:mID="7" v:groupContext="shape" transform="translate(119.213,0)">
				<title>圆形.32</title>
				<desc>3</desc>
				<v:userDefs>
					<v:ud v:nameU="visVersion" v:val="VT0(15):26"/>
				</v:userDefs>
				<v:textBlock v:margins="rect(4,4,4,4)" v:tabSpace="42.5197"/>
				<v:textRect cx="14.1732" cy="126.538" width="24.81" height="21.2598"/>
				<path d="M0 126.54 A14.1732 14.1732 0 0 1 28.35 126.54 A14.1732 14.1732 0 1 1 0 126.54 Z" class="st1"/>
				<text x="9.61" y="131.94" class="st2" v:langID="2052"><v:paragraph v:horizAlign="1"/><v:tabList/>3</text>			</g>
			<g id="shape8-20" v:mID="8" v:groupContext="shape" v:layerMember="0" transform="translate(34.1732,-63.7795)">
				<title>动态连接线.33</title>
				<path d="M0 133.63 L21.31 133.63" class="st3"/>
			</g>
			<g id="shape9-26" v:mID="9" v:groupContext="shape" v:layerMember="0" transform="translate(90.8662,-63.7795)">
				<title>动态连接线.34</title>
				<path d="M0 133.63 L21.31 133.63" class="st3"/>
			</g>
			<g id="shape10-31" v:mID="10" v:groupContext="shape" v:layerMember="0" transform="translate(27.0866,-28.3465)">
				<title>动态连接线.35</title>
				<path d="M-7.09 140.71 L-7.09 119.41" class="st3"/>
			</g>
			<g id="shape11-36" v:mID="11" v:groupContext="shape" v:layerMember="0" transform="translate(123.363,-24.1965)">
				<title>动态连接线.36</title>
				<path d="M0 140.71 L-86.79 106.64" class="st3"/>
			</g>
			<g id="shape12-41" v:mID="12" v:groupContext="shape" v:layerMember="0" transform="translate(123.363,-24.1965)">
				<title>动态连接线.37</title>
				<path d="M0 140.71 L-31.67 109.04" class="st3"/>
			</g>
			<g id="shape13-46" v:mID="13" v:groupContext="shape" v:layerMember="0" transform="translate(66.6696,-24.1965)">
				<title>动态连接线.38</title>
				<path d="M0 140.71 L-31.67 109.04" class="st3"/>
			</g>
			<g id="shape14-51" v:mID="14" v:groupContext="shape" transform="translate(175.906,-56.6929)">
				<title>圆形.39</title>
				<desc>D</desc>
				<v:userDefs>
					<v:ud v:nameU="visVersion" v:val="VT0(15):26"/>
				</v:userDefs>
				<v:textBlock v:margins="rect(4,4,4,4)" v:tabSpace="42.5197"/>
				<v:textRect cx="14.1732" cy="126.538" width="24.81" height="21.2598"/>
				<path d="M0 126.54 A14.1732 14.1732 0 0 1 28.35 126.54 A14.1732 14.1732 0 1 1 0 126.54 Z" class="st1"/>
				<text x="8.64" y="131.94" class="st2" v:langID="2052"><v:paragraph v:horizAlign="1"/><v:tabList/>D</text>			</g>
			<g id="shape15-54" v:mID="15" v:groupContext="shape" v:layerMember="0" transform="translate(147.559,-77.9528)">
				<title>动态连接线.40</title>
				<path d="M0 147.8 L21.31 147.8" class="st3"/>
			</g>
			<g id="shape16-59" v:mID="16" v:groupContext="shape" transform="translate(175.906,0)">
				<title>圆形.41</title>
				<desc>4</desc>
				<v:userDefs>
					<v:ud v:nameU="visVersion" v:val="VT0(15):26"/>
				</v:userDefs>
				<v:textBlock v:margins="rect(4,4,4,4)" v:tabSpace="42.5197"/>
				<v:textRect cx="14.1732" cy="126.538" width="24.81" height="21.2598"/>
				<path d="M0 126.54 A14.1732 14.1732 0 0 1 28.35 126.54 A14.1732 14.1732 0 1 1 0 126.54 Z" class="st1"/>
				<text x="9.61" y="131.94" class="st2" v:langID="2052"><v:paragraph v:horizAlign="1"/><v:tabList/>4</text>			</g>
			<g id="shape17-62" v:mID="17" v:groupContext="shape" v:layerMember="0" transform="translate(180.055,-24.1965)">
				<title>动态连接线.42</title>
				<path d="M0 140.71 L-143.19 105.74" class="st3"/>
			</g>
			<g id="shape18-67" v:mID="18" v:groupContext="shape" v:layerMember="0" transform="translate(180.055,-24.1965)">
				<title>动态连接线.43</title>
				<path d="M0 140.71 L-86.79 106.64" class="st3"/>
			</g>
			<g id="shape19-72" v:mID="19" v:groupContext="shape" v:layerMember="0" transform="translate(180.055,-24.1965)">
				<title>动态连接线.44</title>
				<path d="M0 140.71 L-31.67 109.04" class="st3"/>
			</g>
			<g id="shape20-77" v:mID="20" v:groupContext="shape" transform="translate(7.99361E-15,-91.5512)">
				<title>工作表.20</title>
				<desc>n=4</desc>
				<v:textBlock v:margins="rect(4,4,4,4)" v:tabSpace="42.5197"/>
				<v:textRect cx="16.2992" cy="135.751" width="32.6" height="9.92126"/>
				<rect x="0" y="130.79" width="32.5984" height="9.92126" class="st5"/>
				<text x="7.12" y="139.35" class="st6" v:langID="2052"><v:paragraph v:horizAlign="1"/><v:tabList/>n=4</text>			</g>
		</g>
	</g>
</svg>
