<svg width="561" height="321" xmlns="http://www.w3.org/2000/svg" xmlns:xlink="http://www.w3.org/1999/xlink" overflow="hidden"><defs><clipPath id="clip0"><path d="M278 343 839 343 839 664 278 664Z" fill-rule="evenodd" clip-rule="evenodd"/></clipPath></defs><g clip-path="url(#clip0)" transform="translate(-278 -343)"><path d="M292.502 627 821.755 627.7 821.751 630.7 292.498 630ZM820.259 624.698 829.253 629.21 820.247 633.698Z"/><path d="M1.5-5.70713e-07 1.5001 268.436-1.4999 268.436-1.5 5.70713e-07ZM4.5001 266.936 0.000104987 275.936-4.4999 266.936Z" transform="matrix(1 0 0 -1 292.5 628.436)"/><path d="M368 622 368 628.947" stroke="#000000" stroke-width="2" stroke-miterlimit="8" fill="none" fill-rule="evenodd"/><path d="M407 622 407 628.947" stroke="#000000" stroke-width="2" stroke-miterlimit="8" fill="none" fill-rule="evenodd"/><path d="M446 622 446 628.947" stroke="#000000" stroke-width="2" stroke-miterlimit="8" fill="none" fill-rule="evenodd"/><path d="M484 622 484 628.947" stroke="#000000" stroke-width="2" stroke-miterlimit="8" fill="none" fill-rule="evenodd"/><path d="M523 622 523 628.947" stroke="#000000" stroke-width="2" stroke-miterlimit="8" fill="none" fill-rule="evenodd"/><path d="M561 622 561 628.947" stroke="#000000" stroke-width="2" stroke-miterlimit="8" fill="none" fill-rule="evenodd"/><path d="M600 622 600 628.947" stroke="#000000" stroke-width="2" stroke-miterlimit="8" fill="none" fill-rule="evenodd"/><path d="M639 622 639 628.947" stroke="#000000" stroke-width="2" stroke-miterlimit="8" fill="none" fill-rule="evenodd"/><path d="M677 622 677 628.947" stroke="#000000" stroke-width="2" stroke-miterlimit="8" fill="none" fill-rule="evenodd"/><path d="M716 622 716 628.947" stroke="#000000" stroke-width="2" stroke-miterlimit="8" fill="none" fill-rule="evenodd"/><path d="M754 622 754 628.947" stroke="#000000" stroke-width="2" stroke-miterlimit="8" fill="none" fill-rule="evenodd"/><path d="M793 622 793 628.947" stroke="#000000" stroke-width="2" stroke-miterlimit="8" fill="none" fill-rule="evenodd"/><path d="M292 622 292 628.947" stroke="#000000" stroke-width="2" stroke-miterlimit="8" fill="none" fill-rule="evenodd"/><path d="M330 622 330 628.947" stroke="#000000" stroke-width="2" stroke-miterlimit="8" fill="none" fill-rule="evenodd"/><text font-family="DengXian,DengXian_MSFontService,sans-serif" font-weight="400" font-size="16" transform="translate(325.669 649)">1<tspan x="38.0909" y="0">2</tspan><tspan x="77.1496" y="0">3</tspan><tspan x="115.811" y="0">4</tspan><tspan x="154.905" y="0">5</tspan><tspan x="192.874" y="0">6</tspan><tspan x="231.479" y="0">7</tspan><tspan x="269.448" y="0">8</tspan><tspan x="308.716" y="0">9</tspan><tspan x="342.923" y="0">10</tspan><tspan x="381.498" y="0">11</tspan><tspan x="420.073" y="0">12</tspan><tspan x="458.648" y="0">13</tspan></text><rect x="639.5" y="596.5" width="154" height="19" stroke="#000000" stroke-miterlimit="8" fill="#FFFFFF"/><text font-family="DengXian,DengXian_MSFontService,sans-serif" font-weight="400" font-size="16" transform="translate(711.119 611)">h</text><rect x="523.5" y="571.5" width="193" height="19" stroke="#000000" stroke-miterlimit="8" fill="#FFFFFF"/><text font-family="DengXian,DengXian_MSFontService,sans-serif" font-weight="400" font-size="16" transform="translate(614.612 586)">g</text><rect x="485.5" y="540.5" width="192" height="18" stroke="#000000" stroke-miterlimit="8" fill="#FFFFFF"/><text font-family="DengXian,DengXian_MSFontService,sans-serif" font-weight="400" font-size="16" transform="translate(578.833 554)">f</text><rect x="445.5" y="507.5" width="155" height="24" stroke="#000000" stroke-miterlimit="8" fill="#FFFFFF"/><text font-family="DengXian,DengXian_MSFontService,sans-serif" font-weight="400" font-size="16" transform="translate(518.484 524)">e</text><rect x="408.5" y="442.5" width="77" height="19" stroke="#000000" stroke-miterlimit="8" fill="#FFFFFF"/><text font-family="DengXian,DengXian_MSFontService,sans-serif" font-weight="400" font-size="16" transform="translate(443.083 457)">c</text><rect x="330.5" y="406.5" width="115" height="19" stroke="#000000" stroke-miterlimit="8" fill="#FFFFFF"/><text font-family="DengXian,DengXian_MSFontService,sans-serif" font-weight="400" font-size="16" transform="translate(382.972 421)">b</text><rect x="293.5" y="371.5" width="114" height="18" stroke="#000000" stroke-miterlimit="8" fill="#FFFFFF"/><text font-family="DengXian,DengXian_MSFontService,sans-serif" font-weight="400" font-size="16" transform="translate(345.943 386)">a<tspan x="-57.9627" y="263">0</tspan></text><path d="M330.5 415.5 330.5 629.719" stroke="#000000" stroke-miterlimit="8" stroke-dasharray="4 3" fill="none" fill-rule="evenodd"/><path d="M407.5 380.5 407.5 630.047" stroke="#000000" stroke-miterlimit="8" stroke-dasharray="4 3" fill="none" fill-rule="evenodd"/><path d="M445.5 415.5 446.038 629.719" stroke="#000000" stroke-miterlimit="8" stroke-dasharray="4 3" fill="none" fill-rule="evenodd"/><path d="M0 0 0.417533 178.315" stroke="#000000" stroke-miterlimit="8" stroke-dasharray="4 3" fill="none" fill-rule="evenodd" transform="matrix(-1 -8.74228e-08 -8.74228e-08 1 485.918 451.5)"/><path d="M0 0 0.575958 110.686" stroke="#000000" stroke-miterlimit="8" stroke-dasharray="4 3" fill="none" fill-rule="evenodd" transform="matrix(-1 -8.74228e-08 -8.74228e-08 1 600.076 519.5)"/><path d="M523.5 581.5 523.5 630.666" stroke="#000000" stroke-miterlimit="8" stroke-dasharray="4 3" fill="none" fill-rule="evenodd"/><path d="M0 0 0.000104987 80.9159" stroke="#000000" stroke-miterlimit="8" stroke-dasharray="4 3" fill="none" fill-rule="evenodd" transform="matrix(-1 -8.74228e-08 -8.74228e-08 1 677.5 549.5)"/><path d="M716.5 581.5 716.569 630.666" stroke="#000000" stroke-miterlimit="8" stroke-dasharray="4 3" fill="none" fill-rule="evenodd"/><path d="M639.5 606.5 639.618 630.642" stroke="#000000" stroke-miterlimit="8" stroke-dasharray="4 3" fill="none" fill-rule="evenodd"/><path d="M793.5 606.5 793.764 630.642" stroke="#000000" stroke-miterlimit="8" stroke-dasharray="4 3" fill="none" fill-rule="evenodd"/><rect x="485.5" y="475.5" width="77" height="19" stroke="#000000" stroke-miterlimit="8" fill="#FFFFFF"/><text font-family="DengXian,DengXian_MSFontService,sans-serif" font-weight="400" font-size="16" transform="translate(519.024 490)">d</text><path d="M0 0 0.784462 145.421" stroke="#000000" stroke-miterlimit="8" stroke-dasharray="4 3" fill="none" fill-rule="evenodd" transform="matrix(-1 -8.74228e-08 -8.74228e-08 1 562.284 484.5)"/></g></svg>