<svg width="1198" height="237" xmlns="http://www.w3.org/2000/svg" xmlns:xlink="http://www.w3.org/1999/xlink" overflow="hidden"><defs><clipPath id="clip0"><rect x="42" y="239" width="1198" height="237"/></clipPath><clipPath id="clip1"><rect x="146" y="347" width="17" height="13"/></clipPath><clipPath id="clip2"><rect x="146" y="347" width="17" height="13"/></clipPath><clipPath id="clip3"><rect x="146" y="347" width="17" height="13"/></clipPath><clipPath id="clip4"><rect x="1145" y="403" width="83" height="29"/></clipPath><clipPath id="clip5"><rect x="1145" y="403" width="83" height="29"/></clipPath><clipPath id="clip6"><rect x="1145" y="403" width="83" height="29"/></clipPath><clipPath id="clip7"><rect x="1056" y="273" width="56" height="29"/></clipPath><clipPath id="clip8"><rect x="1056" y="273" width="56" height="29"/></clipPath><clipPath id="clip9"><rect x="1056" y="273" width="56" height="29"/></clipPath><clipPath id="clip10"><rect x="882" y="438" width="16" height="18"/></clipPath><clipPath id="clip11"><rect x="882" y="438" width="16" height="18"/></clipPath><clipPath id="clip12"><rect x="882" y="438" width="16" height="18"/></clipPath></defs><g clip-path="url(#clip0)" transform="translate(-42 -239)"><path d="M5.05963e-06-0.666667 20.9999-0.666507 20.9999 0.666826-5.05963e-06 0.666667ZM19.6666-3.99985 27.6666 0.000209974 19.6665 4.00015Z" transform="matrix(1 0 0 -1 168.5 351.5)"/><path d="M1057.5 464C1055.01 464 1053 461.985 1053 459.5L1053 374.5C1053 372.015 1055.01 370 1057.5 370L1075.5 370C1077.99 370 1080 372.015 1080 374.5L1080 459.5C1080 461.985 1077.99 464 1075.5 464Z" fill="#CAE4F6" fill-rule="evenodd" fill-opacity="0.980392"/><text font-family="Times New Roman,Times New Roman_MSFontService,sans-serif" font-weight="400" font-size="24" transform="matrix(-1.83697e-16 -1 1 -1.83697e-16 1074.89 448)">Linear</text><path d="M1090.5 464C1088.01 464 1086 461.985 1086 459.5L1086 374.5C1086 372.015 1088.01 370 1090.5 370L1108.5 370C1110.99 370 1113 372.015 1113 374.5L1113 459.5C1113 461.985 1110.99 464 1108.5 464Z" fill="#FCEBD1" fill-rule="evenodd" fill-opacity="0.980392"/><text font-family="Times New Roman,Times New Roman_MSFontService,sans-serif" font-weight="400" font-size="24" transform="matrix(-1.83697e-16 -1 1 -1.83697e-16 1107.93 458)">Sigmoid</text><path d="M1052.87 468.5C1051.01 468.5 1049.5 466.993 1049.5 465.133L1049.5 370.867C1049.5 369.007 1051.01 367.5 1052.87 367.5L1114.13 367.5C1115.99 367.5 1117.5 369.007 1117.5 370.867L1117.5 465.133C1117.5 466.993 1115.99 468.5 1114.13 468.5Z" stroke="#000000" stroke-width="1.33333" stroke-miterlimit="8" fill="none" fill-rule="evenodd"/><path d="M50.5001 340.892C50.5001 338.466 52.4665 336.5 54.8921 336.5L164.108 336.5C166.534 336.5 168.5 338.466 168.5 340.892L168.5 363.108C168.5 365.534 166.534 367.5 164.108 367.5L54.8921 367.5C52.4665 367.5 50.5001 365.534 50.5001 363.108Z" stroke="#000000" stroke-width="1.33333" stroke-miterlimit="8" fill="#F2F2F2" fill-rule="evenodd"/><text font-family="Times New Roman,Times New Roman_MSFontService,sans-serif" font-weight="400" font-size="24" transform="translate(57.2573 360)">Location   </text><g clip-path="url(#clip1)"><g clip-path="url(#clip2)"><g clip-path="url(#clip3)"><path d="M155.685 352.764 159.019 348.942C159.335 348.568 159.594 348.338 161.979 348.338L161.979 347.102C160.369 347.16 160.312 347.16 159.335 347.16 158.501 347.16 157.266 347.16 156.461 347.102L156.461 348.338C157.007 348.338 157.611 348.482 157.611 348.683 157.611 348.74 157.467 348.942 157.409 348.999L154.909 351.816 152.064 348.338 153.271 348.338 153.271 347.102C152.61 347.16 150.656 347.16 149.88 347.16 149.018 347.16 147.466 347.16 146.661 347.102L146.661 348.338 148.701 348.338 153.185 353.799 149.449 358.023C149.104 358.426 148.903 358.627 146.517 358.627L146.517 359.862C148.242 359.805 148.299 359.805 149.19 359.805 150.023 359.805 151.23 359.805 152.035 359.862L152.035 358.627C151.489 358.627 150.886 358.483 150.886 358.282 150.886 358.253 150.886 358.224 151.087 357.994L153.961 354.747 157.151 358.627 155.944 358.627 155.944 359.862C156.633 359.805 158.559 359.805 159.364 359.805 160.226 359.805 161.749 359.805 162.554 359.862L162.554 358.627 160.542 358.627 155.685 352.764Z"/></g></g></g><path d="M1135.5 405C1135.5 401.41 1138.41 398.5 1142 398.5L1233 398.5C1236.59 398.5 1239.5 401.41 1239.5 405L1239.5 431C1239.5 434.59 1236.59 437.5 1233 437.5L1142 437.5C1138.41 437.5 1135.5 434.59 1135.5 431Z" stroke="#000000" stroke-width="1.33333" stroke-miterlimit="8" fill="#C8F5E8" fill-rule="evenodd"/><g clip-path="url(#clip4)"><g clip-path="url(#clip5)"><g clip-path="url(#clip6)"><path d="M1158.35 421.268C1158.35 420.926 1158.04 420.926 1157.76 420.926 1157.3 420.926 1157.27 420.955 1157.13 421.297 1156.93 421.839 1156.16 423.751 1153.53 423.751 1149.51 423.751 1149.51 419.414 1149.51 418.13 1149.51 416.446 1149.54 412.708 1153.28 412.708 1153.47 412.708 1155.16 412.765 1155.16 412.908 1155.16 412.936 1155.13 412.965 1155.07 412.993 1154.99 413.079 1154.62 413.507 1154.62 414.22 1154.62 415.419 1155.59 415.904 1156.3 415.904 1156.9 415.904 1157.98 415.533 1157.98 414.192 1157.98 411.852 1154.7 411.681 1153.16 411.681 1148.08 411.681 1146.08 414.991 1146.08 418.272 1146.08 422.153 1148.8 424.778 1152.99 424.778 1157.47 424.778 1158.35 421.468 1158.35 421.268Z"/><path d="M1168.49 431.541C1168.49 431.456 1168.49 431.398 1168 430.913 1165.15 428.031 1163.55 423.323 1163.55 417.502 1163.55 411.966 1164.89 407.201 1168.2 403.833 1168.49 403.577 1168.49 403.52 1168.49 403.434 1168.49 403.263 1168.34 403.206 1168.23 403.206 1167.86 403.206 1165.52 405.26 1164.12 408.057 1162.67 410.939 1162.01 413.992 1162.01 417.502 1162.01 420.041 1162.41 423.437 1163.89 426.49 1165.58 429.915 1167.92 431.769 1168.23 431.769 1168.34 431.769 1168.49 431.712 1168.49 431.541Z"/><path d="M1179.65 417.559 1182.96 413.764C1183.28 413.393 1183.54 413.164 1185.9 413.164L1185.9 411.937C1184.31 411.994 1184.25 411.994 1183.28 411.994 1182.45 411.994 1181.22 411.994 1180.42 411.937L1180.42 413.164C1180.97 413.164 1181.57 413.307 1181.57 413.507 1181.57 413.564 1181.42 413.764 1181.37 413.821L1178.88 416.617 1176.06 413.164 1177.26 413.164 1177.26 411.937C1176.6 411.994 1174.66 411.994 1173.89 411.994 1173.03 411.994 1171.49 411.994 1170.69 411.937L1170.69 413.164 1172.72 413.164 1177.17 418.586 1173.46 422.781C1173.12 423.18 1172.92 423.38 1170.55 423.38L1170.55 424.607C1172.26 424.55 1172.32 424.55 1173.21 424.55 1174.03 424.55 1175.23 424.55 1176.03 424.607L1176.03 423.38C1175.49 423.38 1174.89 423.237 1174.89 423.038 1174.89 423.009 1174.89 422.981 1175.09 422.752L1177.94 419.528 1181.11 423.38 1179.91 423.38 1179.91 424.607C1180.6 424.55 1182.51 424.55 1183.31 424.55 1184.16 424.55 1185.68 424.55 1186.47 424.607L1186.47 423.38 1184.48 423.38 1179.65 417.559Z"/><path d="M1192.48 424.721C1192.48 423.066 1191.94 421.839 1190.77 421.839 1189.86 421.839 1189.4 422.581 1189.4 423.209 1189.4 423.837 1189.83 424.607 1190.8 424.607 1191.17 424.607 1191.48 424.493 1191.74 424.236 1191.8 424.179 1191.83 424.179 1191.86 424.179 1191.91 424.179 1191.91 424.579 1191.91 424.721 1191.91 425.663 1191.74 427.518 1190.09 429.372 1189.77 429.715 1189.77 429.772 1189.77 429.829 1189.77 429.972 1189.92 430.114 1190.06 430.114 1190.29 430.114 1192.48 428.003 1192.48 424.721Z"/><path d="M1209.31 405.032 1209.31 406.259C1211.08 406.259 1211.28 406.259 1211.28 407.372L1211.28 413.136C1210.65 412.594 1209.39 411.766 1207.42 411.766 1203.37 411.766 1200.49 414.277 1200.49 418.272 1200.49 422.353 1203.32 424.778 1207.11 424.778 1208.68 424.778 1210.02 424.236 1211.13 423.294L1211.13 424.778 1216.21 424.607 1216.21 423.38C1214.44 423.38 1214.24 423.38 1214.24 422.267L1214.24 404.804 1209.31 405.032ZM1211.13 421.725C1209.94 423.466 1208.48 423.837 1207.45 423.837 1203.91 423.837 1203.91 420.213 1203.91 418.329 1203.91 416.988 1203.91 415.561 1204.54 414.477 1205.43 412.879 1207.11 412.708 1207.77 412.708 1208.94 412.708 1210.19 413.221 1211.13 414.477L1211.13 421.725Z"/><path d="M1225.22 417.502C1225.22 415.333 1224.94 411.795 1223.34 408.485 1221.65 405.06 1219.31 403.206 1219 403.206 1218.89 403.206 1218.74 403.263 1218.74 403.434 1218.74 403.52 1218.74 403.577 1219.23 404.062 1222.08 406.944 1223.68 411.652 1223.68 417.473 1223.68 423.009 1222.34 427.774 1219.03 431.142 1218.74 431.398 1218.74 431.456 1218.74 431.541 1218.74 431.712 1218.89 431.769 1219 431.769 1219.37 431.769 1221.71 429.715 1223.11 426.918 1224.57 424.008 1225.22 420.926 1225.22 417.502Z"/></g></g></g><path d="M1032.5 274.833C1032.5 271.336 1035.34 268.5 1038.83 268.5L1129.17 268.5C1132.66 268.5 1135.5 271.336 1135.5 274.833L1135.5 300.167C1135.5 303.664 1132.66 306.5 1129.17 306.5L1038.83 306.5C1035.34 306.5 1032.5 303.664 1032.5 300.167Z" stroke="#000000" stroke-width="1.33333" stroke-miterlimit="8" fill="#C8F5E8" fill-rule="evenodd"/><g clip-path="url(#clip7)"><g clip-path="url(#clip8)"><g clip-path="url(#clip9)"><path d="M1070.66 283.808C1071.03 283.808 1071.99 283.808 1071.99 282.885 1071.99 282.25 1071.44 282.25 1070.92 282.25L1064.54 282.25C1060.21 282.25 1057.1 287.069 1057.1 290.474 1057.1 292.927 1058.68 294.976 1061.28 294.976 1064.69 294.976 1068.41 291.311 1068.41 286.982 1068.41 285.857 1068.15 284.76 1067.46 283.808L1070.66 283.808ZM1061.31 294.399C1059.84 294.399 1058.77 293.273 1058.77 291.282 1058.77 289.551 1059.81 283.808 1064.05 283.808 1065.29 283.808 1066.68 284.414 1066.68 286.636 1066.68 287.646 1066.22 290.07 1065.21 291.744 1064.17 293.446 1062.61 294.399 1061.31 294.399Z"/><path d="M1082.41 301.7C1082.41 301.613 1082.41 301.555 1081.92 301.065 1079.04 298.15 1077.42 293.389 1077.42 287.502 1077.42 281.903 1078.78 277.084 1082.13 273.679 1082.41 273.42 1082.41 273.362 1082.41 273.275 1082.41 273.102 1082.27 273.044 1082.15 273.044 1081.78 273.044 1079.41 275.122 1078 277.95 1076.53 280.865 1075.86 283.952 1075.86 287.502 1075.86 290.07 1076.27 293.504 1077.77 296.592 1079.47 300.055 1081.84 301.93 1082.15 301.93 1082.27 301.93 1082.41 301.873 1082.41 301.7Z"/><path d="M1093.71 287.56 1097.05 283.721C1097.37 283.346 1097.63 283.115 1100.03 283.115L1100.03 281.875C1098.41 281.932 1098.35 281.932 1097.37 281.932 1096.53 281.932 1095.29 281.932 1094.49 281.875L1094.49 283.115C1095.03 283.115 1095.64 283.26 1095.64 283.462 1095.64 283.519 1095.5 283.721 1095.44 283.779L1092.93 286.607 1090.07 283.115 1091.28 283.115 1091.28 281.875C1090.62 281.932 1088.66 281.932 1087.88 281.932 1087.01 281.932 1085.45 281.932 1084.65 281.875L1084.65 283.115 1086.69 283.115 1091.2 288.598 1087.44 292.84C1087.1 293.244 1086.9 293.446 1084.5 293.446L1084.5 294.687C1086.23 294.63 1086.29 294.63 1087.19 294.63 1088.02 294.63 1089.23 294.63 1090.04 294.687L1090.04 293.446C1089.49 293.446 1088.89 293.302 1088.89 293.1 1088.89 293.071 1088.89 293.042 1089.09 292.812L1091.98 289.551 1095.18 293.446 1093.97 293.446 1093.97 294.687C1094.66 294.63 1096.59 294.63 1097.4 294.63 1098.27 294.63 1099.8 294.63 1100.6 294.687L1100.6 293.446 1098.58 293.446 1093.71 287.56Z"/><path d="M1109.19 287.502C1109.19 285.309 1108.9 281.73 1107.28 278.383 1105.58 274.92 1103.22 273.044 1102.9 273.044 1102.78 273.044 1102.64 273.102 1102.64 273.275 1102.64 273.362 1102.64 273.42 1103.13 273.91 1106.01 276.825 1107.63 281.586 1107.63 287.473 1107.63 293.071 1106.27 297.89 1102.93 301.296 1102.64 301.555 1102.64 301.613 1102.64 301.7 1102.64 301.873 1102.78 301.93 1102.9 301.93 1103.27 301.93 1105.64 299.853 1107.05 297.025 1108.53 294.081 1109.19 290.965 1109.19 287.502Z"/></g></g></g><path d="M732.5 436.667C732.5 433.813 734.813 431.5 737.667 431.5L898.333 431.5C901.187 431.5 903.5 433.813 903.5 436.667L903.5 457.333C903.5 460.187 901.187 462.5 898.333 462.5L737.667 462.5C734.813 462.5 732.5 460.187 732.5 457.333Z" stroke="#000000" stroke-width="1.33333" stroke-miterlimit="8" fill="#F2F2F2" fill-rule="evenodd"/><text font-family="Times New Roman,Times New Roman_MSFontService,sans-serif" font-weight="400" font-size="24" transform="translate(739.323 455)">Ray Direction</text><g clip-path="url(#clip10)"><g clip-path="url(#clip11)"><g clip-path="url(#clip12)"><path d="M8.91652-17.6275 8.91652-16.5225C10.5097-16.5225 10.6895-16.5225 10.6895-15.5204L10.6895-10.3298C10.1242-10.818 8.99361-11.5632 7.22058-11.5632 3.57174-11.5632 0.976448-9.30195 0.976448-5.70452 0.976448-2.02999 3.52036 0.154176 6.93792 0.154176 8.3512 0.154176 9.55891-0.334049 10.5611-1.18202L10.5611 0.154176 15.135 0 15.135-1.10493C13.5418-1.10493 13.3619-1.10493 13.3619-2.10708L13.3619-17.833 8.91652-17.6275ZM10.5611-2.5953C9.48183-1.02784 8.17133-0.693792 7.24628-0.693792 4.05997-0.693792 4.05997-3.95718 4.05997-5.65312 4.05997-6.86083 4.05997-8.14563 4.62529-9.12208 5.42186-10.5611 6.93792-10.7152 7.52894-10.7152 8.58247-10.7152 9.71309-10.2527 10.5611-9.12208L10.5611-2.5953Z" transform="matrix(1 0 0 1.0125 882 456)"/></g></g></g><text font-family="Times New Roman,Times New Roman_MSFontService,sans-serif" font-weight="400" font-size="21" transform="translate(317.665 277)">skip connection</text><path d="M203.667 398C201.089 398 199 395.911 199 393.333L199 308.667C199 306.089 201.089 304 203.667 304L222.333 304C224.911 304 227 306.089 227 308.667L227 393.333C227 395.911 224.911 398 222.333 398Z" fill="#CAE4F6" fill-rule="evenodd" fill-opacity="0.980392"/><text font-family="Times New Roman,Times New Roman_MSFontService,sans-serif" font-weight="400" font-size="24" transform="matrix(-1.83697e-16 -1 1 -1.83697e-16 221.625 382)">Linear</text><path d="M236.667 398C234.089 398 232 395.911 232 393.333L232 308.667C232 306.089 234.089 304 236.667 304L255.333 304C257.911 304 260 306.089 260 308.667L260 393.333C260 395.911 257.911 398 255.333 398Z" fill="#FCEBD1" fill-rule="evenodd" fill-opacity="0.980392"/><text font-family="Times New Roman,Times New Roman_MSFontService,sans-serif" font-weight="400" font-size="24" transform="matrix(-1.83697e-16 -1 1 -1.83697e-16 254.661 380)">ReLU</text><path d="M199.867 402.5C198.007 402.5 196.5 400.993 196.5 399.133L196.5 303.867C196.5 302.007 198.007 300.5 199.867 300.5L261.133 300.5C262.993 300.5 264.5 302.007 264.5 303.867L264.5 399.133C264.5 400.993 262.993 402.5 261.133 402.5Z" stroke="#000000" stroke-width="1.33333" stroke-miterlimit="8" fill="none" fill-rule="evenodd"/><path d="M289.667 398C287.089 398 285 395.911 285 393.333L285 308.667C285 306.089 287.089 304 289.667 304L308.333 304C310.911 304 313 306.089 313 308.667L313 393.333C313 395.911 310.911 398 308.333 398Z" fill="#CAE4F6" fill-rule="evenodd" fill-opacity="0.980392"/><text font-family="Times New Roman,Times New Roman_MSFontService,sans-serif" font-weight="400" font-size="24" transform="matrix(-1.83697e-16 -1 1 -1.83697e-16 307.362 382)">Linear</text><path d="M322.667 398C320.089 398 318 395.911 318 393.333L318 308.667C318 306.089 320.089 304 322.667 304L341.333 304C343.911 304 346 306.089 346 308.667L346 393.333C346 395.911 343.911 398 341.333 398Z" fill="#FCEBD1" fill-rule="evenodd" fill-opacity="0.980392"/><text font-family="Times New Roman,Times New Roman_MSFontService,sans-serif" font-weight="400" font-size="24" transform="matrix(-1.83697e-16 -1 1 -1.83697e-16 340.398 380)">ReLU</text><path d="M284.916 402.5C283.03 402.5 281.5 400.971 281.5 399.084L281.5 303.916C281.5 302.029 283.03 300.5 284.916 300.5L347.084 300.5C348.971 300.5 350.5 302.029 350.5 303.916L350.5 399.084C350.5 400.971 348.971 402.5 347.084 402.5Z" stroke="#000000" stroke-width="1.33333" stroke-miterlimit="8" fill="none" fill-rule="evenodd"/><path d="M375.667 398C373.089 398 371 395.911 371 393.333L371 308.667C371 306.089 373.089 304 375.667 304L394.333 304C396.911 304 399 306.089 399 308.667L399 393.333C399 395.911 396.911 398 394.333 398Z" fill="#CAE4F6" fill-rule="evenodd" fill-opacity="0.980392"/><text font-family="Times New Roman,Times New Roman_MSFontService,sans-serif" font-weight="400" font-size="24" transform="matrix(-1.83697e-16 -1 1 -1.83697e-16 393.682 382)">Linear</text><path d="M408.667 398C406.089 398 404 395.911 404 393.333L404 308.667C404 306.089 406.089 304 408.667 304L427.333 304C429.911 304 432 306.089 432 308.667L432 393.333C432 395.911 429.911 398 427.333 398Z" fill="#FCEBD1" fill-rule="evenodd" fill-opacity="0.980392"/><text font-family="Times New Roman,Times New Roman_MSFontService,sans-serif" font-weight="400" font-size="24" transform="matrix(-1.83697e-16 -1 1 -1.83697e-16 426.717 380)">ReLU</text><path d="M371.867 402.5C370.007 402.5 368.5 400.993 368.5 399.133L368.5 303.867C368.5 302.007 370.007 300.5 371.867 300.5L433.133 300.5C434.993 300.5 436.5 302.007 436.5 303.867L436.5 399.133C436.5 400.993 434.993 402.5 433.133 402.5Z" stroke="#000000" stroke-width="1.33333" stroke-miterlimit="8" fill="none" fill-rule="evenodd"/><path d="M461.667 398C459.089 398 457 395.911 457 393.333L457 308.667C457 306.089 459.089 304 461.667 304L480.333 304C482.911 304 485 306.089 485 308.667L485 393.333C485 395.911 482.911 398 480.333 398Z" fill="#CAE4F6" fill-rule="evenodd" fill-opacity="0.980392"/><text font-family="Times New Roman,Times New Roman_MSFontService,sans-serif" font-weight="400" font-size="24" transform="matrix(-1.83697e-16 -1 1 -1.83697e-16 479.419 382)">Linear</text><path d="M494.667 398C492.089 398 490 395.911 490 393.333L490 308.667C490 306.089 492.089 304 494.667 304L513.333 304C515.911 304 518 306.089 518 308.667L518 393.333C518 395.911 515.911 398 513.333 398Z" fill="#FCEBD1" fill-rule="evenodd" fill-opacity="0.980392"/><text font-family="Times New Roman,Times New Roman_MSFontService,sans-serif" font-weight="400" font-size="24" transform="matrix(-1.83697e-16 -1 1 -1.83697e-16 512.455 380)">ReLU</text><path d="M456.916 402.5C455.03 402.5 453.5 400.971 453.5 399.084L453.5 303.916C453.5 302.029 455.03 300.5 456.916 300.5L519.084 300.5C520.971 300.5 522.5 302.029 522.5 303.916L522.5 399.084C522.5 400.971 520.971 402.5 519.084 402.5Z" stroke="#000000" stroke-width="1.33333" stroke-miterlimit="8" fill="none" fill-rule="evenodd"/><path d="M547.5 398C545.015 398 543 395.985 543 393.5L543 308.5C543 306.015 545.015 304 547.5 304L565.5 304C567.985 304 570 306.015 570 308.5L570 393.5C570 395.985 567.985 398 565.5 398Z" fill="#CAE4F6" fill-rule="evenodd" fill-opacity="0.980392"/><text font-family="Times New Roman,Times New Roman_MSFontService,sans-serif" font-weight="400" font-size="24" transform="matrix(-1.83697e-16 -1 1 -1.83697e-16 565.157 382)">Linear</text><path d="M580.5 398C578.015 398 576 395.985 576 393.5L576 308.5C576 306.015 578.015 304 580.5 304L598.5 304C600.985 304 603 306.015 603 308.5L603 393.5C603 395.985 600.985 398 598.5 398Z" fill="#FCEBD1" fill-rule="evenodd" fill-opacity="0.980392"/><text font-family="Times New Roman,Times New Roman_MSFontService,sans-serif" font-weight="400" font-size="24" transform="matrix(-1.83697e-16 -1 1 -1.83697e-16 598.193 380)">ReLU</text><path d="M542.867 402.5C541.007 402.5 539.5 400.993 539.5 399.133L539.5 303.867C539.5 302.007 541.007 300.5 542.867 300.5L604.133 300.5C605.993 300.5 607.5 302.007 607.5 303.867L607.5 399.133C607.5 400.993 605.993 402.5 604.133 402.5Z" stroke="#000000" stroke-width="1.33333" stroke-miterlimit="8" fill="none" fill-rule="evenodd"/><path d="M633.667 398C631.089 398 629 395.911 629 393.333L629 308.667C629 306.089 631.089 304 633.667 304L652.333 304C654.911 304 657 306.089 657 308.667L657 393.333C657 395.911 654.911 398 652.333 398Z" fill="#CAE4F6" fill-rule="evenodd" fill-opacity="0.980392"/><text font-family="Times New Roman,Times New Roman_MSFontService,sans-serif" font-weight="400" font-size="24" transform="matrix(-1.83697e-16 -1 1 -1.83697e-16 651.476 382)">Linear</text><path d="M666.667 398C664.089 398 662 395.911 662 393.333L662 308.667C662 306.089 664.089 304 666.667 304L685.333 304C687.911 304 690 306.089 690 308.667L690 393.333C690 395.911 687.911 398 685.333 398Z" fill="#FCEBD1" fill-rule="evenodd" fill-opacity="0.980392"/><text font-family="Times New Roman,Times New Roman_MSFontService,sans-serif" font-weight="400" font-size="24" transform="matrix(-1.83697e-16 -1 1 -1.83697e-16 684.512 380)">ReLU</text><path d="M628.916 402.5C627.03 402.5 625.5 400.971 625.5 399.084L625.5 303.916C625.5 302.029 627.03 300.5 628.916 300.5L691.084 300.5C692.971 300.5 694.5 302.029 694.5 303.916L694.5 399.084C694.5 400.971 692.971 402.5 691.084 402.5Z" stroke="#000000" stroke-width="1.33333" stroke-miterlimit="8" fill="none" fill-rule="evenodd"/><path d="M720.5 398C718.015 398 716 395.985 716 393.5L716 308.5C716 306.015 718.015 304 720.5 304L738.5 304C740.985 304 743 306.015 743 308.5L743 393.5C743 395.985 740.985 398 738.5 398Z" fill="#CAE4F6" fill-rule="evenodd" fill-opacity="0.980392"/><text font-family="Times New Roman,Times New Roman_MSFontService,sans-serif" font-weight="400" font-size="24" transform="matrix(-1.83697e-16 -1 1 -1.83697e-16 737.879 382)">Linear</text><path d="M753.5 398C751.015 398 749 395.985 749 393.5L749 308.5C749 306.015 751.015 304 753.5 304L771.5 304C773.985 304 776 306.015 776 308.5L776 393.5C776 395.985 773.985 398 771.5 398Z" fill="#FCEBD1" fill-rule="evenodd" fill-opacity="0.980392"/><text font-family="Times New Roman,Times New Roman_MSFontService,sans-serif" font-weight="400" font-size="24" transform="matrix(-1.83697e-16 -1 1 -1.83697e-16 770.915 380)">ReLU</text><path d="M715.867 402.5C714.007 402.5 712.5 400.993 712.5 399.133L712.5 303.867C712.5 302.007 714.007 300.5 715.867 300.5L777.133 300.5C778.993 300.5 780.5 302.007 780.5 303.867L780.5 399.133C780.5 400.993 778.993 402.5 777.133 402.5Z" stroke="#000000" stroke-width="1.33333" stroke-miterlimit="8" fill="none" fill-rule="evenodd"/><path d="M971.5 464C969.015 464 967 461.985 967 459.5L967 374.5C967 372.015 969.015 370 971.5 370L989.5 370C991.985 370 994 372.015 994 374.5L994 459.5C994 461.985 991.985 464 989.5 464Z" fill="#CAE4F6" fill-rule="evenodd" fill-opacity="0.980392"/><text font-family="Times New Roman,Times New Roman_MSFontService,sans-serif" font-weight="400" font-size="24" transform="matrix(-1.83697e-16 -1 1 -1.83697e-16 989.155 448)">Linear</text><path d="M1004.5 464C1002.01 464 1000 461.985 1000 459.5L1000 374.5C1000 372.015 1002.01 370 1004.5 370L1022.5 370C1024.99 370 1027 372.015 1027 374.5L1027 459.5C1027 461.985 1024.99 464 1022.5 464Z" fill="#FCEBD1" fill-rule="evenodd" fill-opacity="0.980392"/><text font-family="Times New Roman,Times New Roman_MSFontService,sans-serif" font-weight="400" font-size="24" transform="matrix(-1.83697e-16 -1 1 -1.83697e-16 1022.19 446)">ReLU</text><path d="M966.867 468.5C965.007 468.5 963.5 466.993 963.5 465.133L963.5 369.867C963.5 368.007 965.007 366.5 966.867 366.5L1028.13 366.5C1029.99 366.5 1031.5 368.007 1031.5 369.867L1031.5 465.133C1031.5 466.993 1029.99 468.5 1028.13 468.5Z" stroke="#000000" stroke-width="1.33333" stroke-miterlimit="8" fill="none" fill-rule="evenodd"/><path d="M889.167 398.5C886.59 398.5 884.5 396.411 884.5 393.833L884.5 308.167C884.5 305.589 886.59 303.5 889.167 303.5L907.833 303.5C910.411 303.5 912.5 305.589 912.5 308.167L912.5 393.833C912.5 396.411 910.411 398.5 907.833 398.5Z" stroke="#000000" stroke-width="1.33333" stroke-miterlimit="8" fill="#CAE4F6" fill-rule="evenodd" fill-opacity="0.980392"/><text font-family="Times New Roman,Times New Roman_MSFontService,sans-serif" font-weight="400" font-size="24" transform="matrix(-1.83697e-16 -1 1 -1.83697e-16 906.416 382)">Linear</text><path d="M264.5 350.833 275.318 350.833 275.318 352.167 264.5 352.167ZM273.985 347.5 281.985 351.5 273.985 355.5Z"/><path d="M350.5 350.833 361.9 350.833 361.9 352.167 350.5 352.167ZM360.566 347.5 368.566 351.5 360.566 355.5Z"/><path d="M4.00299e-06-0.666667 10.8181-0.666602 10.8181 0.666732-4.00299e-06 0.666667ZM9.48475-3.99994 17.4847 0.000104987 9.4847 4.00006Z" transform="matrix(1 0 0 -1 436.5 351.5)"/><path d="M522.5 350.833 533.318 350.833 533.318 352.167 522.5 352.167ZM531.985 347.5 539.985 351.5 531.985 355.5Z"/><path d="M607.5 350.833 618.9 350.833 618.9 352.167 607.5 352.167ZM617.566 347.5 625.566 351.5 617.566 355.5Z"/><path d="M694.5 350.833 705.983 350.833 705.983 352.167 694.5 352.167ZM704.65 347.5 712.65 351.5 704.65 355.5Z"/><path d="M0.0209143-0.666339 11.2328-0.314432 11.191 1.01825-0.0209143 0.666339ZM10.0047-3.68795 17.8753 0.56105 9.75373 4.30811Z" transform="matrix(1 0 0 -1 780.5 352.061)"/><path d="M806.5 397C804.015 397 802 394.985 802 392.5L802 307.5C802 305.015 804.015 303 806.5 303L824.5 303C826.985 303 829 305.015 829 307.5L829 392.5C829 394.985 826.985 397 824.5 397Z" fill="#CAE4F6" fill-rule="evenodd" fill-opacity="0.980392"/><text font-family="Times New Roman,Times New Roman_MSFontService,sans-serif" font-weight="400" font-size="24" transform="matrix(-1.83697e-16 -1 1 -1.83697e-16 824.007 382)">Linear</text><path d="M839.5 397C837.015 397 835 394.985 835 392.5L835 307.5C835 305.015 837.015 303 839.5 303L857.5 303C859.985 303 862 305.015 862 307.5L862 392.5C862 394.985 859.985 397 857.5 397Z" fill="#FCEBD1" fill-rule="evenodd" fill-opacity="0.980392"/><text font-family="Times New Roman,Times New Roman_MSFontService,sans-serif" font-weight="400" font-size="24" transform="matrix(-1.83697e-16 -1 1 -1.83697e-16 857.043 380)">ReLU</text><path d="M801.867 401.5C800.007 401.5 798.5 399.993 798.5 398.133L798.5 303.867C798.5 302.007 800.007 300.5 801.867 300.5L863.133 300.5C864.993 300.5 866.5 302.007 866.5 303.867L866.5 398.133C866.5 399.993 864.993 401.5 863.133 401.5Z" stroke="#000000" stroke-width="1.33333" stroke-miterlimit="8" fill="none" fill-rule="evenodd"/><path d="M0.666667 0.666667-63.5072 0.666667-62.8405 0-62.8405 436.025-63.5072 435.359-6.17382 435.359-6.17382 436.692-63.5072 436.692C-63.8754 436.692-64.1739 436.393-64.1739 436.025L-64.1739 0C-64.1739-0.36819-63.8754-0.666667-63.5072-0.666667L0.666667-0.666667ZM-7.50719 432.025 0.492808 436.025-7.50719 440.025Z" transform="matrix(1.83697e-16 1 1 -1.83697e-16 180.5 350.5)"/><path d="M986 334.5C983.515 334.5 981.5 332.485 981.5 330L981.5 245C981.5 242.515 983.515 240.5 986 240.5L1004 240.5C1006.49 240.5 1008.5 242.515 1008.5 245L1008.5 330C1008.5 332.485 1006.49 334.5 1004 334.5Z" stroke="#000000" stroke-width="1.33333" stroke-miterlimit="8" fill="#FCEBD1" fill-rule="evenodd" fill-opacity="0.980392"/><text font-family="Times New Roman,Times New Roman_MSFontService,sans-serif" font-weight="400" font-size="24" transform="matrix(-1.83697e-16 -1 1 -1.83697e-16 1002.9 316)">ReLU</text><path d="M866.502 350.833 877.692 350.86 877.689 352.193 866.498 352.167ZM876.367 347.523 884.357 351.542 876.348 355.523Z"/><path d="M912.5 350.833 938.943 350.833 938.943 418.144 938.276 417.478 957.385 417.478 957.385 418.811 937.609 418.811 937.609 351.5 938.276 352.167 912.5 352.167ZM956.052 414.144 964.052 418.144 956.052 422.144Z"/><path d="M0-0.666667 26.4979-0.666667 26.4979 63.6141 25.8313 62.9474 62.329 62.9474 62.329 64.2807 25.1646 64.2807 25.1646 0 25.8313 0.666667 0 0.666667ZM60.9957 59.6141 68.9957 63.6141 60.9957 67.6141Z" transform="matrix(1 0 0 -1 912.5 351.114)"/><path d="M1008.5 286.833 1025.74 286.833 1025.74 288.167 1008.5 288.167ZM1024.41 283.5 1032.41 287.5 1024.41 291.5Z"/><path d="M1031.51 416.833 1042.33 416.95 1042.31 418.283 1031.49 418.167ZM1041.03 413.602 1048.98 417.688 1040.94 421.602Z"/><path d="M1117.5 416.833 1129.02 416.846 1129.02 418.179 1117.5 418.167ZM1127.69 413.511 1135.68 417.52 1127.68 421.511Z"/><path d="M1.16439e-06-0.666667 53.4432-0.666573 53.4432 0.66676-1.16439e-06 0.666667ZM52.1098-3.99991 60.1098 0.000104987 52.1098 4.00009Z" transform="matrix(1 0 0 -1 903.5 447.5)"/></g></svg>